<?xml version="1.0" encoding="UTF-8" standalone="no"?>
<svg
   width="1011.9064"
   zoomAndPan="magnify"
   viewBox="0 0 758.92978 149.24437"
   height="198.99249"
   preserveAspectRatio="xMidYMid"
   version="1.0"
   id="svg40"
   sodipodi:docname="SamHacker.svg"
   inkscape:version="1.3.2 (091e20e, 2023-11-25, custom)"
   inkscape:export-filename="SamHacker_Logo.png"
   inkscape:export-xdpi="96"
   inkscape:export-ydpi="96"
   xmlns:inkscape="http://www.inkscape.org/namespaces/inkscape"
   xmlns:sodipodi="http://sodipodi.sourceforge.net/DTD/sodipodi-0.dtd"
   xmlns="http://www.w3.org/2000/svg"
   xmlns:svg="http://www.w3.org/2000/svg">
  <sodipodi:namedview
     id="namedview40"
     pagecolor="#ffffff"
     bordercolor="#666666"
     borderopacity="1.0"
     inkscape:showpageshadow="2"
     inkscape:pageopacity="0.0"
     inkscape:pagecheckerboard="0"
     inkscape:deskcolor="#d1d1d1"
     inkscape:zoom="1.2899174"
     inkscape:cx="486.85288"
     inkscape:cy="101.16927"
     inkscape:window-width="1920"
     inkscape:window-height="1017"
     inkscape:window-x="-8"
     inkscape:window-y="-8"
     inkscape:window-maximized="1"
     inkscape:current-layer="svg40" />
  <defs
     id="defs1">
    <g
       id="g1" />
  </defs>
  <g
     id="g43"
     transform="matrix(1.6049609,0,0,1.6049609,-74.002036,-82.757222)">
    <g
       id="g41"
       transform="translate(11.628651,6.3957581)">
      <g
         fill="#000000"
         fill-opacity="1"
         id="g4"
         style="stroke:#000000;stroke-width:3">
        <g
           transform="translate(32.63591,108.57388)"
           id="g3"
           style="stroke:#000000;stroke-width:3">
          <g
             id="g2"
             style="stroke:#000000;stroke-width:3">
            <path
               d="m 30.171875,-57.9375 c 1.394531,-0.832031 2.09375,-1.597656 2.09375,-2.296875 0,-0.28125 -0.140625,-0.628906 -0.421875,-1.046875 -0.28125,-0.414062 -0.667969,-0.625 -1.15625,-0.625 -0.554688,0 -1.421875,0.277344 -2.609375,0.828125 -1.59375,0.5625 -4.375,2.480469 -8.34375,5.75 -1.53125,1.25 -2.609375,2.121094 -3.234375,2.609375 -0.355469,0.210938 -0.949219,0.921875 -1.78125,2.140625 -0.835938,1.21875 -1.460938,2 -1.875,2.34375 -0.625,0.773437 -0.9375,1.367187 -0.9375,1.78125 0,0.554687 0.625,1.980469 1.875,4.28125 0.757812,1.460937 1.957031,3.199219 3.59375,5.21875 1.644531,2.011719 2.882812,3.296875 3.71875,3.859375 0.757812,0.492188 1.867188,1.570312 3.328125,3.234375 1.46875,1.667969 2.410156,2.921875 2.828125,3.765625 0.550781,1.386719 0.828125,2.671875 0.828125,3.859375 0,2.230469 -0.90625,4.179687 -2.71875,5.84375 -1.804687,1.667969 -3.9375,2.871094 -6.40625,3.609375 -2.46875,0.730469 -5.027344,1.125 -7.671875,1.1875 -1.1875,0 -2.027344,-0.06641 -2.515625,-0.203125 C 8.273438,-11.929688 7.6875,-12.347656 7,-13.046875 c -0.773438,-0.769531 -1.507812,-1.15625 -2.203125,-1.15625 -0.417969,0 -0.765625,0.179687 -1.046875,0.53125 -0.273438,0.34375 -0.40625,0.761719 -0.40625,1.25 0,0.761719 0.3125,1.492187 0.9375,2.1875 0.625,0.90625 1.804688,1.671875 3.546875,2.296875 1.664063,0.699219 3.128906,1.046875 4.390625,1.046875 1.039062,0 2.535156,-0.242187 4.484375,-0.734375 1.945313,-0.488281 3.128906,-0.734375 3.546875,-0.734375 0.695312,0 1.773438,-0.414063 3.234375,-1.25 1.46875,-0.832031 2.863281,-1.804687 4.1875,-2.921875 1.039063,-0.832031 2.117187,-2.273438 3.234375,-4.328125 1.113281,-2.050781 1.878906,-3.878906 2.296875,-5.484375 -0.417969,-2.988281 -1.308594,-5.492188 -2.671875,-7.515625 -1.355469,-2.019531 -3.5625,-4.488281 -6.625,-7.40625 -3.761719,-3.207031 -5.640625,-6.03125 -5.640625,-8.46875 0,-0.832031 0.140625,-1.472656 0.421875,-1.921875 0.28125,-0.457031 1.148438,-1.347656 2.609375,-2.671875 4.101563,-3.957031 7.0625,-6.492187 8.875,-7.609375 z m 0,0"
               id="path1"
               style="stroke:#000000;stroke-width:3" />
          </g>
        </g>
      </g>
      <g
         fill="#000000"
         fill-opacity="1"
         id="g7"
         style="stroke:#000000;stroke-width:3">
        <g
           transform="translate(69.490678,108.57388)"
           id="g6"
           style="stroke:#000000;stroke-width:3">
          <g
             id="g5"
             style="stroke:#000000;stroke-width:3">
            <path
               d="m 34.5625,-11.28125 c 0.132812,0 0.320312,-0.03125 0.5625,-0.09375 0.25,-0.07031 0.53125,-0.265625 0.84375,-0.578125 0.3125,-0.3125 0.46875,-0.75 0.46875,-1.3125 0,-0.6875 -0.351562,-2.039063 -1.046875,-4.0625 -1.117187,-3.414063 -2.609375,-6.96875 -4.484375,-10.65625 -1.117188,-2.15625 -1.777344,-3.578125 -1.984375,-4.265625 -0.210937,-0.695312 -0.386719,-1.953125 -0.53125,-3.765625 -0.0625,-1.738281 -0.167969,-2.816406 -0.3125,-3.234375 -0.136719,-0.414062 -0.449219,-0.832031 -0.9375,-1.25 -0.0625,-0.07031 -0.339844,-0.300781 -0.828125,-0.6875 -0.492188,-0.382812 -0.890625,-0.695312 -1.203125,-0.9375 -0.3125,-0.238281 -0.730469,-0.550781 -1.25,-0.9375 -0.523437,-0.382812 -0.976563,-0.679688 -1.359375,-0.890625 -0.386719,-0.207031 -0.789062,-0.394531 -1.203125,-0.5625 -0.417969,-0.175781 -0.765625,-0.265625 -1.046875,-0.265625 -0.0625,0 -0.132812,0 -0.203125,0 -1.949219,0.417969 -3.273437,0.835938 -3.96875,1.25 -0.699219,0.417969 -2.195313,1.742188 -4.484375,3.96875 -1.46875,1.460938 -2.515625,2.574219 -3.140625,3.34375 -0.625,0.761719 -1.183594,1.734375 -1.671875,2.921875 -2.085938,4.730469 -3.125,8.695313 -3.125,11.890625 0,1.042969 0.101562,2.015625 0.3125,2.921875 0.550781,2.09375 2.082031,3.140625 4.59375,3.140625 1.394531,0 2.859375,-0.414062 4.390625,-1.25 2.707031,-1.46875 5.421875,-4.253906 8.140625,-8.359375 0.269531,-0.34375 0.648438,-0.863281 1.140625,-1.5625 0.832031,-1.320313 1.457031,-1.984375 1.875,-1.984375 0.632813,0 1.472656,1.148438 2.515625,3.4375 0.34375,0.90625 0.914062,1.96875 1.71875,3.1875 0.800781,1.21875 1.375,2.246094 1.71875,3.078125 1.8125,5.011719 3.3125,7.515625 4.5,7.515625 z M 9.703125,-20.359375 c -1.117187,0 -1.671875,-0.660156 -1.671875,-1.984375 0,-0.625 0.175781,-1.910156 0.53125,-3.859375 0.550781,-3.757813 2.394531,-7.273437 5.53125,-10.546875 1.53125,-1.664062 2.625,-2.707031 3.28125,-3.125 0.664062,-0.414062 1.488281,-0.625 2.46875,-0.625 2.21875,0.273438 3.328125,1.417969 3.328125,3.4375 0,0.980469 -0.34375,2.058594 -1.03125,3.234375 -1.679687,3.417969 -3.90625,6.546875 -6.6875,9.390625 -2.574219,2.71875 -4.492187,4.078125 -5.75,4.078125 z m 0,0"
               id="path4"
               style="stroke:#000000;stroke-width:3" />
          </g>
        </g>
      </g>
      <g
         fill="#000000"
         fill-opacity="1"
         id="g10"
         style="stroke:#000000;stroke-width:3">
        <g
           transform="translate(109.8952,108.57388)"
           id="g9"
           style="stroke:#000000;stroke-width:3">
          <g
             id="g8"
             style="stroke:#000000;stroke-width:3">
            <path
               d="m 30.90625,-32.046875 c 0,-1.53125 -0.230469,-2.75 -0.6875,-3.65625 -0.449219,-0.90625 -0.851562,-1.460937 -1.203125,-1.671875 -0.34375,-0.207031 -0.65625,-0.3125 -0.9375,-0.3125 -2.085937,0 -4.46875,1.0625 -7.15625,3.1875 -2.679687,2.125 -4.679687,4.195312 -6,6.203125 -0.898437,1.398437 -1.695313,2.09375 -2.390625,2.09375 -0.5625,0 -0.84375,-0.382813 -0.84375,-1.15625 0,-0.34375 0.07031,-0.757813 0.21875,-1.25 0.269531,-0.695313 0.597656,-2.503906 0.984375,-5.421875 0.382813,-2.925781 0.578125,-4.84375 0.578125,-5.75 -0.07422,-0.34375 -0.265625,-0.722656 -0.578125,-1.140625 -0.3125,-0.414063 -0.679687,-0.832031 -1.09375,-1.25 -0.417969,-0.414063 -0.695313,-0.695313 -0.828125,-0.84375 -0.5625,0 -1.105469,0.648437 -1.625,1.9375 -0.523438,1.28125 -0.886719,2.867187 -1.09375,4.75 -0.625,5.21875 -1.132812,8.804687 -1.515625,10.75 -0.386719,1.949219 -1.167969,4.386719 -2.34375,7.3125 -0.5625,0.96875 -0.84375,1.839844 -0.84375,2.609375 0,0.835938 0.242187,1.496094 0.734375,1.984375 0.488281,0.480469 0.941406,0.71875 1.359375,0.71875 0.757813,0 1.875,-1.003906 3.34375,-3.015625 0.757813,-0.976562 2.203125,-2.5625 4.328125,-4.75 2.125,-2.195312 3.566406,-3.816406 4.328125,-4.859375 1.113281,-1.601563 2.363281,-2.992187 3.75,-4.171875 1.394531,-1.1875 2.515625,-1.78125 3.359375,-1.78125 0.625,0 0.9375,0.59375 0.9375,1.78125 0,2.648438 -0.632812,5.464844 -1.890625,8.453125 -0.6875,1.605469 -1.070313,2.71875 -1.140625,3.34375 0,0.273437 0.273438,0.6875 0.828125,1.25 0.5625,0.554687 1.015625,0.828125 1.359375,0.828125 0.414062,0 1.078125,-0.378906 1.984375,-1.140625 0.90625,-0.769531 1.707031,-1.675781 2.40625,-2.71875 0.625,-0.96875 2.101563,-2.828125 4.4375,-5.578125 2.332031,-2.75 3.738281,-4.472656 4.21875,-5.171875 1.8125,-2.4375 3.03125,-3.65625 3.65625,-3.65625 0.625,0 1.078125,0.558594 1.359375,1.671875 0,0.07422 0,0.140625 0,0.203125 0,1.1875 -0.765625,4.671875 -2.296875,10.453125 -0.34375,1.25 -0.515625,2.398438 -0.515625,3.4375 0,1.667969 0.414062,2.5 1.25,2.5 0.832031,0 1.492188,-0.328125 1.984375,-0.984375 0.488281,-0.664063 1.1875,-2.210937 2.09375,-4.640625 0.269531,-0.769531 0.648437,-1.75 1.140625,-2.9375 0.90625,-2.21875 1.359375,-4.582031 1.359375,-7.09375 0,-0.414062 0,-0.867188 0,-1.359375 0,-2.851563 -0.125,-4.726563 -0.375,-5.625 -0.242187,-0.90625 -0.8125,-1.601563 -1.71875,-2.09375 -0.554687,-0.28125 -1.007813,-0.421875 -1.359375,-0.421875 -0.273438,0 -0.585938,0.07031 -0.9375,0.203125 -0.835938,0.21875 -2.246094,1.234375 -4.234375,3.046875 -1.980469,1.804688 -3.492187,3.402344 -4.53125,4.796875 -0.28125,0.273437 -0.632813,0.652344 -1.046875,1.140625 -1.042969,1.1875 -1.734375,1.78125 -2.078125,1.78125 -0.492187,0 -0.734375,-0.660156 -0.734375,-1.984375 z m 0,0"
               id="path7"
               style="stroke:#000000;stroke-width:3" />
          </g>
        </g>
      </g>
      <g
         fill="#000000"
         fill-opacity="1"
         id="g13"
         style="stroke:#000000;stroke-width:3">
        <g
           transform="translate(161.6798,108.57388)"
           id="g12"
           style="stroke:#000000;stroke-width:3">
          <g
             id="g11"
             style="stroke:#000000;stroke-width:3">
            <path
               d="m 37.796875,-11.6875 c 0,-1.945312 0.503906,-5.285156 1.515625,-10.015625 1.007812,-4.738281 1.617188,-8.117187 1.828125,-10.140625 0,-1.175781 0.625,-4.203125 1.875,-9.078125 0.695313,-2.644531 1.046875,-5.015625 1.046875,-7.109375 0,-0.625 0,-1.703125 0,-3.234375 -0.07422,-3.96875 -0.355469,-6.226563 -0.84375,-6.78125 -0.417969,-0.550781 -1.042969,-0.828125 -1.875,-0.828125 -0.5625,0 -0.949219,0.210938 -1.15625,0.625 -0.273438,0.625 -0.546875,2.292969 -0.828125,5 -0.492187,4.53125 -0.824219,7.304688 -1,8.3125 -0.167969,1 -0.390625,1.746094 -0.671875,2.234375 -0.34375,0.492187 -1.875,1.449219 -4.59375,2.875 -2.71875,1.429687 -4.875,2.417969 -6.46875,2.96875 -0.773438,0.210937 -1.5,0.558594 -2.1875,1.046875 -0.636719,0.210938 -1.824219,0.558594 -3.5625,1.046875 -1.742188,0.492187 -3.0625,0.980469 -3.96875,1.46875 -1.59375,0.761719 -2.671875,1.140625 -3.234375,1.140625 -0.625,0 -0.9375,-0.414062 -0.9375,-1.25 0,-0.07031 0.117187,-1.148438 0.359375,-3.234375 0.25,-2.09375 0.375,-3.726563 0.375,-4.90625 0,-2.363281 -0.699219,-3.828125 -2.09375,-4.390625 -0.34375,-0.132812 -0.621094,-0.203125 -0.828125,-0.203125 -0.210937,0 -0.59375,0.171875 -1.15625,0.515625 -0.417969,0.355469 -0.695313,0.792969 -0.828125,1.3125 -0.136719,0.523438 -0.242188,2.03125 -0.3125,4.53125 -0.074219,2.023438 -0.304688,4.132812 -0.6875,6.328125 -0.375,2.1875 -0.601562,3.453125 -0.671875,3.796875 -0.210937,1.886719 -0.765625,4.515625 -1.671875,7.890625 -0.90625,3.375 -1.464844,5.96875 -1.671875,7.78125 0,0.136719 0,0.273437 0,0.40625 0,1.53125 0.660156,2.296875 1.984375,2.296875 0.769531,0 1.363281,-0.363281 1.78125,-1.09375 0.414062,-0.726562 0.796875,-2.066406 1.140625,-4.015625 0.207031,-1.113281 0.503906,-2.242187 0.890625,-3.390625 0.382812,-1.144531 0.644531,-2.207031 0.78125,-3.1875 0.207031,-1.320312 0.675781,-2.347656 1.40625,-3.078125 0.726562,-0.726563 1.859375,-1.300781 3.390625,-1.71875 1.675781,-0.625 3.347656,-1.210937 5.015625,-1.765625 1.675781,-0.5625 3.28125,-1.140625 4.8125,-1.734375 1.53125,-0.59375 3.507812,-1.484375 5.9375,-2.671875 0.5625,-0.207031 1.257812,-0.484375 2.09375,-0.828125 1.25,-0.550781 2.050781,-0.828125 2.40625,-0.828125 0.695312,0 1.046875,0.523438 1.046875,1.5625 0,0.761719 -0.28125,2.589844 -0.84375,5.484375 -0.554687,2.886719 -0.828125,4.695313 -0.828125,5.421875 0,0.730469 -0.320312,2.523438 -0.953125,5.375 -0.625,2.855469 -0.9375,4.734375 -0.9375,5.640625 0,0.07422 0,0.140625 0,0.203125 -0.0625,0.28125 -0.09375,0.5625 -0.09375,0.84375 0,0.90625 0.257813,1.671875 0.78125,2.296875 0.519531,0.625 1.128906,0.9375 1.828125,0.9375 0.550781,0 1.140625,-0.242187 1.765625,-0.734375 0.414063,-0.34375 0.660156,-0.671875 0.734375,-0.984375 0.07031,-0.3125 0.109375,-1.023437 0.109375,-2.140625 z m 0,0"
               id="path10"
               style="stroke:#000000;stroke-width:3" />
          </g>
        </g>
      </g>
      <g
         fill="#000000"
         fill-opacity="1"
         id="g16"
         style="stroke:#000000;stroke-width:3">
        <g
           transform="translate(209.18382,108.57388)"
           id="g15"
           style="stroke:#000000;stroke-width:3">
          <g
             id="g14"
             style="stroke:#000000;stroke-width:3">
            <path
               d="m 34.5625,-11.28125 c 0.132812,0 0.320312,-0.03125 0.5625,-0.09375 0.25,-0.07031 0.53125,-0.265625 0.84375,-0.578125 0.3125,-0.3125 0.46875,-0.75 0.46875,-1.3125 0,-0.6875 -0.351562,-2.039063 -1.046875,-4.0625 -1.117187,-3.414063 -2.609375,-6.96875 -4.484375,-10.65625 -1.117188,-2.15625 -1.777344,-3.578125 -1.984375,-4.265625 -0.210937,-0.695312 -0.386719,-1.953125 -0.53125,-3.765625 -0.0625,-1.738281 -0.167969,-2.816406 -0.3125,-3.234375 -0.136719,-0.414062 -0.449219,-0.832031 -0.9375,-1.25 -0.0625,-0.07031 -0.339844,-0.300781 -0.828125,-0.6875 -0.492188,-0.382812 -0.890625,-0.695312 -1.203125,-0.9375 -0.3125,-0.238281 -0.730469,-0.550781 -1.25,-0.9375 -0.523437,-0.382812 -0.976563,-0.679688 -1.359375,-0.890625 -0.386719,-0.207031 -0.789062,-0.394531 -1.203125,-0.5625 -0.417969,-0.175781 -0.765625,-0.265625 -1.046875,-0.265625 -0.0625,0 -0.132812,0 -0.203125,0 -1.949219,0.417969 -3.273437,0.835938 -3.96875,1.25 -0.699219,0.417969 -2.195313,1.742188 -4.484375,3.96875 -1.46875,1.460938 -2.515625,2.574219 -3.140625,3.34375 -0.625,0.761719 -1.183594,1.734375 -1.671875,2.921875 -2.085938,4.730469 -3.125,8.695313 -3.125,11.890625 0,1.042969 0.101562,2.015625 0.3125,2.921875 0.550781,2.09375 2.082031,3.140625 4.59375,3.140625 1.394531,0 2.859375,-0.414062 4.390625,-1.25 2.707031,-1.46875 5.421875,-4.253906 8.140625,-8.359375 0.269531,-0.34375 0.648438,-0.863281 1.140625,-1.5625 0.832031,-1.320313 1.457031,-1.984375 1.875,-1.984375 0.632813,0 1.472656,1.148438 2.515625,3.4375 0.34375,0.90625 0.914062,1.96875 1.71875,3.1875 0.800781,1.21875 1.375,2.246094 1.71875,3.078125 1.8125,5.011719 3.3125,7.515625 4.5,7.515625 z M 9.703125,-20.359375 c -1.117187,0 -1.671875,-0.660156 -1.671875,-1.984375 0,-0.625 0.175781,-1.910156 0.53125,-3.859375 0.550781,-3.757813 2.394531,-7.273437 5.53125,-10.546875 1.53125,-1.664062 2.625,-2.707031 3.28125,-3.125 0.664062,-0.414062 1.488281,-0.625 2.46875,-0.625 2.21875,0.273438 3.328125,1.417969 3.328125,3.4375 0,0.980469 -0.34375,2.058594 -1.03125,3.234375 -1.679687,3.417969 -3.90625,6.546875 -6.6875,9.390625 -2.574219,2.71875 -4.492187,4.078125 -5.75,4.078125 z m 0,0"
               id="path13"
               style="stroke:#000000;stroke-width:3" />
          </g>
        </g>
      </g>
      <g
         fill="#000000"
         fill-opacity="1"
         id="g19"
         style="stroke:#000000;stroke-width:3">
        <g
           transform="translate(249.58834,108.57388)"
           id="g18"
           style="stroke:#000000;stroke-width:3">
          <g
             id="g17"
             style="stroke:#000000;stroke-width:3">
            <path
               d="m 34.765625,-23.703125 c 1.039063,-0.757813 1.5625,-1.421875 1.5625,-1.984375 0,-0.269531 -0.105469,-0.523438 -0.3125,-0.765625 -0.210937,-0.25 -0.453125,-0.375 -0.734375,-0.375 -0.480469,0 -2.078125,0.835937 -4.796875,2.5 -2.855469,1.679687 -5.03125,2.84375 -6.53125,3.5 -1.492187,0.65625 -3.28125,1.164063 -5.375,1.515625 -2.085937,0.34375 -3.542969,0.515625 -4.375,0.515625 -1.054687,0 -2.101563,-0.347656 -3.140625,-1.046875 -1.460938,-0.894531 -2.1875,-1.867188 -2.1875,-2.921875 0,-0.414063 0.1875,-1.070313 0.5625,-1.96875 0.382812,-0.90625 0.613281,-1.601563 0.6875,-2.09375 0.488281,-2.15625 1.53125,-4.484375 3.125,-6.984375 1.601562,-2.507812 3.066406,-4.046875 4.390625,-4.609375 0.207031,-0.132813 0.695313,-0.203125 1.46875,-0.203125 0.34375,0 0.929687,0.01563 1.765625,0.04687 0.84375,0.03125 1.367188,0.04687 1.578125,0.04687 0.132813,0 0.238281,0 0.3125,0 -0.210937,-0.34375 -0.664063,-0.929688 -1.359375,-1.765625 -0.699219,-0.832031 -1.21875,-1.351563 -1.5625,-1.5625 -0.5625,-0.351563 -1.261719,-0.53125 -2.09375,-0.53125 -0.773438,0 -1.46875,0.140625 -2.09375,0.421875 -1.25,0.699219 -2.921875,2.09375 -5.015625,4.1875 C 8.554688,-35.695312 7.34375,-33.890625 7,-32.359375 c -0.28125,0.96875 -0.578125,1.804687 -0.890625,2.5 -0.3125,0.699219 -0.574219,1.464844 -0.78125,2.296875 -0.210937,0.554688 -0.453125,1.214844 -0.734375,1.984375 -0.28125,0.761719 -0.511719,1.421875 -0.6875,1.984375 -0.167969,0.554688 -0.25,1.039062 -0.25,1.453125 0,1.398437 0.867188,2.929687 2.609375,4.59375 2.226563,2.304687 4.523437,3.453125 6.890625,3.453125 0.414062,0 1.25,-0.06641 2.5,-0.203125 1.257812,-0.144531 2.984375,-0.476563 5.171875,-1 2.1875,-0.519531 3.910156,-1.195313 5.171875,-2.03125 1.382812,-0.90625 2.253906,-1.394531 2.609375,-1.46875 0.550781,-0.269531 1.609375,-1.066406 3.171875,-2.390625 1.570312,-1.320312 2.566406,-2.160156 2.984375,-2.515625 z m 0,0"
               id="path16"
               style="stroke:#000000;stroke-width:3" />
          </g>
        </g>
      </g>
      <g
         fill="#000000"
         fill-opacity="1"
         id="g22"
         style="stroke:#000000;stroke-width:3">
        <g
           transform="translate(286.1299,108.57388)"
           id="g21"
           style="stroke:#000000;stroke-width:3">
          <g
             id="g20"
             style="stroke:#000000;stroke-width:3">
            <path
               d="m 8.984375,-22.140625 c 0,-0.476563 0.015625,-0.820313 0.046875,-1.03125 0.03125,-0.207031 0.1875,-0.378906 0.46875,-0.515625 0.28125,-0.144531 0.664062,-0.21875 1.15625,-0.21875 1.175781,0 2.285156,0.277344 3.328125,0.828125 0.414063,0.28125 1.492187,0.601563 3.234375,0.953125 1.75,0.34375 2.832031,0.621094 3.25,0.828125 1.175781,0.699219 3.296875,1.589844 6.359375,2.671875 3.0625,1.074219 4.941406,1.609375 5.640625,1.609375 1.664062,0 2.5,-0.59375 2.5,-1.78125 0,-0.476563 -0.3125,-0.941406 -0.9375,-1.390625 -0.625,-0.457031 -2.121094,-1.28125 -4.484375,-2.46875 -5.292969,-2.71875 -9.085937,-4.210938 -11.375,-4.484375 -2.09375,-0.144531 -3.140625,-0.5625 -3.140625,-1.25 0,-0.488281 0.363281,-1.132813 1.09375,-1.9375 0.726562,-0.800781 1.515625,-1.476563 2.359375,-2.03125 2.289063,-1.46875 4.273437,-3.523437 5.953125,-6.171875 0.269531,-0.476562 0.734375,-1.097656 1.390625,-1.859375 0.664063,-0.769531 1.242187,-1.46875 1.734375,-2.09375 0.488281,-0.632813 0.734375,-1.085937 0.734375,-1.359375 0,-0.488281 -0.230469,-0.925781 -0.6875,-1.3125 C 27.160156,-45.539062 26.625,-45.734375 26,-45.734375 c -0.492188,0 -0.945312,0.140625 -1.359375,0.421875 -0.5625,0.28125 -1.367187,1.226562 -2.40625,2.828125 -1.042969,1.386719 -2.835937,3.386719 -5.375,6 -2.542969,2.605469 -4.125,4.011719 -4.75,4.21875 -0.28125,0.07422 -0.492187,0.109375 -0.625,0.109375 -0.699219,0 -1.046875,-0.414062 -1.046875,-1.25 0,-0.832031 0.46875,-3.53125 1.40625,-8.09375 0.945312,-4.5625 1.523438,-8.128906 1.734375,-10.703125 0.0625,-0.96875 0.179687,-1.882813 0.359375,-2.75 0.175781,-0.875 0.265625,-1.414063 0.265625,-1.625 0,-0.5625 -0.351563,-1.257813 -1.046875,-2.09375 0,0 -0.28125,-0.06641 -0.84375,-0.203125 -0.625,0 -1.167969,0.296875 -1.625,0.890625 -0.449219,0.585937 -0.703125,1.367187 -0.765625,2.34375 -0.074219,0.761719 -0.320313,1.839844 -0.734375,3.234375 -0.417969,1.386719 -0.664062,2.5 -0.734375,3.34375 -0.210937,1.949219 -0.714844,4.683594 -1.515625,8.203125 -0.804688,3.511719 -1.375,6.65625 -1.71875,9.4375 -0.074219,0.492187 -0.390625,1.242187 -0.953125,2.25 -0.554687,1 -0.828125,1.765625 -0.828125,2.296875 0,0.523438 0.210938,1.058594 0.640625,1.609375 0.414063,0.835937 0.726563,2.820313 0.9375,5.953125 0.0625,1.875 0.179687,3.078125 0.359375,3.609375 0.175781,0.523437 0.539062,1.164063 1.09375,1.921875 C 7.300781,-12.59375 8.171875,-12 9.078125,-12 c 0.351563,0 0.753906,-0.117188 1.203125,-0.359375 0.457031,-0.25 0.6875,-0.6875 0.6875,-1.3125 0,-0.488281 -0.214844,-1.046875 -0.640625,-1.671875 -0.34375,-0.625 -0.65625,-1.648438 -0.9375,-3.078125 -0.273437,-1.425781 -0.40625,-2.664063 -0.40625,-3.71875 z m 0,0"
               id="path19"
               style="stroke:#000000;stroke-width:3" />
          </g>
        </g>
      </g>
      <g
         fill="#000000"
         fill-opacity="1"
         id="g25"
         style="stroke:#000000;stroke-width:3">
        <g
           transform="translate(324.65515,108.57388)"
           id="g24"
           style="stroke:#000000;stroke-width:3">
          <g
             id="g23"
             style="stroke:#000000;stroke-width:3">
            <path
               d="m 26.515625,-21.5 c -0.34375,-0.207031 -0.65625,-0.3125 -0.9375,-0.3125 -0.554687,0 -1.734375,0.714844 -3.546875,2.140625 -1.8125,1.417969 -3.277344,2.125 -4.390625,2.125 -1.117187,0 -2.195313,-0.675781 -3.234375,-2.03125 -1.042969,-1.351563 -1.808594,-3.285156 -2.296875,-5.796875 -0.28125,-0.90625 -0.421875,-1.53125 -0.421875,-1.875 0,-0.625 0.488281,-1.144531 1.46875,-1.5625 0.695312,-0.351562 1.285156,-0.703125 1.765625,-1.046875 1.8125,-0.96875 3.273437,-1.816406 4.390625,-2.546875 1.113281,-0.738281 2.175781,-1.71875 3.1875,-2.9375 1.007812,-1.21875 1.515625,-2.453125 1.515625,-3.703125 0,-1.8125 -0.976563,-3.757813 -2.921875,-5.84375 0,-0.07031 -0.195312,-0.316406 -0.578125,-0.734375 -0.386719,-0.414062 -0.773437,-0.796875 -1.15625,-1.140625 -0.375,-0.351563 -0.5625,-0.492187 -0.5625,-0.421875 -1.886719,-0.07031 -2.828125,-0.109375 -2.828125,-0.109375 -1.949219,0 -3.234375,0.140625 -3.859375,0.421875 -2.855469,1.25 -4.945313,5.5625 -6.265625,12.9375 -0.210938,1.1875 -0.695312,2.027344 -1.453125,2.515625 -0.699219,0.34375 -1.046875,0.65625 -1.046875,0.9375 0,0.210937 0.328125,0.507813 0.984375,0.890625 0.664063,0.386719 1.363281,1.015625 2.09375,1.890625 0.726563,0.867187 1.195313,1.992187 1.40625,3.375 0.207031,1.605469 0.988281,3.523437 2.34375,5.75 1.363281,2.21875 2.671875,3.714844 3.921875,4.484375 0.769531,0.492188 1.675781,0.734375 2.71875,0.734375 2.707031,0 5.5625,-1.320313 8.5625,-3.96875 0.757812,-0.695313 1.242188,-1.203125 1.453125,-1.515625 0.207031,-0.3125 0.3125,-0.710938 0.3125,-1.203125 0,-0.832031 -0.210937,-1.316406 -0.625,-1.453125 z M 13.15625,-40.71875 c 1.25,-1.738281 2.363281,-2.609375 3.34375,-2.609375 0.625,0 1.265625,0.367187 1.921875,1.09375 0.664063,0.730469 1,1.515625 1,2.359375 0,1.042969 -0.578125,2.085938 -1.734375,3.125 -1.148438,1.042969 -2.1875,1.792969 -3.125,2.25 -0.9375,0.449219 -1.898438,0.851562 -2.875,1.203125 -0.554688,0 -0.828125,-0.453125 -0.828125,-1.359375 0,-1.882812 0.765625,-3.90625 2.296875,-6.0625 z m 0,0"
               id="path22"
               style="stroke:#000000;stroke-width:3" />
          </g>
        </g>
      </g>
      <g
         fill="#000000"
         fill-opacity="1"
         id="g28"
         style="stroke:#000000;stroke-width:3">
        <g
           transform="translate(355.45445,108.57388)"
           id="g27"
           style="stroke:#000000;stroke-width:3">
          <g
             id="g26"
             style="stroke:#000000;stroke-width:3">
            <path
               d="m 12.84375,-27.671875 c 0,0 -0.05469,-0.06641 -0.15625,-0.203125 -0.105469,-0.132812 -0.210938,-0.359375 -0.3125,-0.671875 -0.105469,-0.3125 -0.15625,-0.644531 -0.15625,-1 0,-0.132813 0.01563,-0.410156 0.04687,-0.828125 0.03125,-0.414062 0.04687,-0.867188 0.04687,-1.359375 0,-2.4375 -0.417969,-4.59375 -1.25,-6.46875 -0.835938,-1.882813 -1.84375,-2.828125 -3.03125,-2.828125 -0.480469,0 -0.898438,0.179688 -1.25,0.53125 -0.34375,0.34375 -0.515625,0.726562 -0.515625,1.140625 0,0.699219 0.273437,1.324219 0.828125,1.875 0.625,0.980469 0.9375,4.390625 0.9375,10.234375 0,4.460938 -0.695312,7.835938 -2.078125,10.125 -0.835937,1.605469 -1.25,2.789062 -1.25,3.546875 0,0.980469 0.625,1.46875 1.875,1.46875 0.757813,0 1.351563,-0.242187 1.78125,-0.734375 0.132813,-0.28125 0.6875,-1.304688 1.65625,-3.078125 0.976563,-1.769531 1.640625,-2.832031 1.984375,-3.1875 0.351562,-0.34375 1.710938,-2.21875 4.078125,-5.625 2.363281,-3.414063 4.035156,-5.609375 5.015625,-6.578125 3.332031,-3.414062 5.503906,-5.710938 6.515625,-6.890625 1.007813,-1.1875 1.515625,-2.023437 1.515625,-2.515625 0,-0.28125 -0.210938,-0.554688 -0.625,-0.828125 -0.417969,-0.28125 -0.765625,-0.421875 -1.046875,-0.421875 -0.273437,0 -0.792969,0.210938 -1.5625,0.625 -0.761719,0.492188 -1.632813,1.203125 -2.609375,2.140625 -0.980469,0.9375 -2.042969,2.015625 -3.1875,3.234375 -1.148438,1.21875 -1.996094,2.074219 -2.546875,2.5625 -0.773437,0.761719 -1.648437,1.804688 -2.625,3.125 -0.96875,1.324219 -1.625,2.195312 -1.96875,2.609375 z m 0,0"
               id="path25"
               style="stroke:#000000;stroke-width:3" />
          </g>
        </g>
      </g>
    </g>
    <g
       id="g42"
       transform="translate(23.257302,-9.3029208)">
      <g
         fill="#000000"
         fill-opacity="1"
         id="g31"
         style="stroke:#000000;stroke-width:3">
        <g
           transform="translate(377.18761,137.11172)"
           id="g30"
           style="stroke:#000000;stroke-width:3">
          <g
             id="g29"
             style="stroke:#000000;stroke-width:3">
            <path
               d="m 32.984375,-39.046875 c -0.480469,0 -1.015625,0.03906 -1.609375,0.109375 -0.59375,0.0625 -1.152344,0.117188 -1.671875,0.15625 -0.523437,0.03125 -1.011719,0.08594 -1.46875,0.15625 -0.449219,0.0625 -0.8125,0.117188 -1.09375,0.15625 -0.273437,0.03125 -0.40625,0.04687 -0.40625,0.04687 -0.429687,0 -0.640625,-0.273437 -0.640625,-0.828125 0,-0.488281 0.734375,-1.671875 2.203125,-3.546875 3.332031,-3.625 5,-7.421875 5,-11.390625 0,-1.382812 -0.242187,-2.632812 -0.71875,-3.75 -0.492187,-1.050781 -1.65625,-2.046875 -3.5,-2.984375 -1.84375,-0.9375 -3.636719,-1.40625 -5.375,-1.40625 -1.117187,0 -2.164063,0.246094 -3.140625,0.734375 -0.96875,0.492188 -1.59375,0.734375 -1.875,0.734375 -0.210938,0 -0.664062,-0.117187 -1.359375,-0.359375 -0.699219,-0.25 -1.289063,-0.375 -1.765625,-0.375 -0.5625,0 -0.949219,0.171875 -1.15625,0.515625 -0.554688,0.625 -1.355469,4.734375 -2.40625,12.328125 -0.210938,1.53125 -0.542969,3.046875 -1,4.546875 -0.449219,1.492187 -0.742188,2.792969 -0.875,3.90625 -0.34375,2.367187 -1.007812,5.6875 -1.984375,9.96875 -0.96875,4.28125 -1.839844,7.398437 -2.609375,9.34375 -0.417969,0.699219 -0.679688,1.414063 -0.78125,2.140625 -0.105469,0.730469 -0.328125,1.480469 -0.671875,2.25 0,0 -0.246094,0.9375 -0.734375,2.8125 0,0.773438 0.207031,1.382812 0.625,1.828125 0.414062,0.449219 1.179688,1.058594 2.296875,1.828125 0,0.07422 0.1875,0.25 0.5625,0.53125 0.382813,0.273438 0.769531,0.53125 1.15625,0.78125 0.382813,0.242188 0.578125,0.324219 0.578125,0.25 C 8.632812,-8.488281 9,-8.46875 9.65625,-8.5 c 0.664062,-0.039062 1.394531,-0.09375 2.1875,-0.15625 0.800781,-0.070312 1.203125,-0.144531 1.203125,-0.21875 2.644531,-0.132812 4.75,-0.425781 6.3125,-0.875 1.570313,-0.457031 3.125,-1.175781 4.65625,-2.15625 1.8125,-1.175781 4.054687,-3.257812 6.734375,-6.25 2.675781,-3 4.503906,-5.472656 5.484375,-7.421875 0.414063,-0.832031 1.25,-3.441406 2.5,-7.828125 -0.07422,-0.07031 -0.164063,-0.28125 -0.265625,-0.625 -0.105469,-0.351562 -0.210938,-0.648438 -0.3125,-0.890625 C 38.050781,-35.160156 38,-35.28125 38,-35.28125 c -0.07422,-0.28125 -0.179688,-0.523438 -0.3125,-0.734375 -0.136719,-0.207031 -0.257812,-0.414063 -0.359375,-0.625 -0.105469,-0.207031 -0.210937,-0.378906 -0.3125,-0.515625 -0.105469,-0.144531 -0.195313,-0.285156 -0.265625,-0.421875 -0.07422,-0.144531 -0.164062,-0.269531 -0.265625,-0.375 C 36.378906,-38.054688 36.3125,-38.125 36.28125,-38.15625 36.25,-38.1875 36.23438,-38.20312 36.23438,-38.20312 c -0.21875,-0.5625 -1.304687,-0.84375 -3.25,-0.84375 z m -19,5.109375 c 0,-0.414062 0.191406,-1.226562 0.578125,-2.4375 0.382812,-1.21875 0.578125,-2.039062 0.578125,-2.46875 0,-0.132812 -0.03906,-0.269531 -0.109375,-0.40625 0.07031,-1.113281 0.367188,-2.835938 0.890625,-5.171875 0.519531,-2.332031 0.847656,-4.085937 0.984375,-5.265625 0.207031,-3.269531 0.625,-5.285156 1.25,-6.046875 0.632812,-0.769531 2.03125,-1.296875 4.1875,-1.578125 0.832031,-0.07031 1.492188,-0.144531 1.984375,-0.21875 H 24.4375 c 0.132812,0 0.269531,0 0.40625,0 1.257812,0 2.128906,0.265625 2.609375,0.796875 0.488281,0.523437 0.800781,1.445313 0.9375,2.765625 0,2.292969 -1.042969,4.867188 -3.125,7.71875 -0.417969,0.554688 -1.21875,1.839844 -2.40625,3.859375 -0.90625,1.605469 -1.605469,2.808594 -2.09375,3.609375 -0.480469,0.804688 -1.105469,1.761719 -1.875,2.875 -0.761719,1.105469 -1.476563,1.886719 -2.140625,2.34375 -0.65625,0.449219 -1.28125,0.671875 -1.875,0.671875 -0.59375,0 -0.890625,-0.347656 -0.890625,-1.046875 z m 18.484375,-0.71875 c 0.976562,0 1.46875,0.46875 1.46875,1.40625 0,0.9375 -0.402344,2.261719 -1.203125,3.96875 -0.804687,1.699219 -1.761719,3.246094 -2.875,4.640625 -2.929687,3.6875 -5.453125,6.335937 -7.578125,7.9375 -2.117188,1.605469 -4.84375,2.824219 -8.1875,3.65625 -1.742188,0.417969 -3.027344,0.625 -3.859375,0.625 -1.398437,0 -2.09375,-0.554687 -2.09375,-1.671875 0,-0.550781 0.242187,-1.351562 0.734375,-2.40625 1.53125,-3.476562 2.4375,-5.945312 2.71875,-7.40625 0.132812,-0.769531 0.53125,-1.535156 1.1875,-2.296875 0.664062,-0.769531 1.273438,-1.15625 1.828125,-1.15625 0.769531,-0.132813 2.945313,-1.28125 6.53125,-3.4375 3.582031,-2.15625 5.96875,-3.234375 7.15625,-3.234375 0.0625,0 0.09375,0 0.09375,0 0.28125,0 0.90625,-0.101562 1.875,-0.3125 0.976563,-0.207031 1.710937,-0.3125 2.203125,-0.3125 z m 0,0"
               id="path28"
               style="stroke:#000000;stroke-width:3" />
          </g>
        </g>
      </g>
      <g
         fill="#000000"
         fill-opacity="1"
         id="g34"
         style="stroke:#000000;stroke-width:3">
        <g
           transform="translate(419.36624,137.11172)"
           id="g33"
           style="stroke:#000000;stroke-width:3">
          <g
             id="g32"
             style="stroke:#000000;stroke-width:3">
            <path
               d="m 13.578125,-58.15625 c 0,-1.039062 -0.28125,-1.941406 -0.84375,-2.703125 -0.554687,-0.769531 -1.140625,-1.15625 -1.765625,-1.15625 -0.355469,0 -0.703125,0.179687 -1.046875,0.53125 -0.355469,0.480469 -0.984375,6.570313 -1.890625,18.265625 -0.417969,5.5625 -0.796875,9.617188 -1.140625,12.15625 -0.34375,2.542969 -0.902344,5.34375 -1.671875,8.40625 -1.117188,4.59375 -1.671875,7.449219 -1.671875,8.5625 0,0.980469 0.207031,1.710938 0.625,2.1875 0.625,0.625 1.144531,0.9375 1.5625,0.9375 0.632813,0 1.125,-0.46875 1.46875,-1.40625 0.34375,-0.9375 0.582031,-1.960938 0.71875,-3.078125 0.144531,-1.113281 0.253906,-1.738281 0.328125,-1.875 0.28125,-0.488281 0.816406,-2.472656 1.609375,-5.953125 0.800781,-3.476562 1.203125,-5.632812 1.203125,-6.46875 0,-1.53125 0.175781,-2.957031 0.53125,-4.28125 0.414062,-1.25 0.726562,-3.234375 0.9375,-5.953125 0.207031,-2.71875 0.363281,-5.796875 0.46875,-9.234375 0.101562,-3.445312 0.222656,-5.832031 0.359375,-7.15625 0.144531,-0.695312 0.21875,-1.289062 0.21875,-1.78125 z m 0,0"
               id="path31"
               style="stroke:#000000;stroke-width:3" />
          </g>
        </g>
      </g>
      <g
         fill="#000000"
         fill-opacity="1"
         id="g37"
         style="stroke:#000000;stroke-width:3">
        <g
           transform="translate(436.17505,137.11172)"
           id="g36"
           style="stroke:#000000;stroke-width:3">
          <g
             id="g35"
             style="stroke:#000000;stroke-width:3">
            <path
               d="m 28.296875,-32.984375 c 0,-2.226563 -1.308594,-4.109375 -3.921875,-5.640625 -2.605469,-1.53125 -5.164062,-2.296875 -7.671875,-2.296875 -1.042969,0 -1.949219,0.171875 -2.71875,0.515625 -3.335937,1.742188 -5.890625,3.695312 -7.671875,5.859375 -1.773438,2.15625 -2.65625,4.902344 -2.65625,8.234375 0,2.71875 0.585938,5.125 1.765625,7.21875 1.1875,2.085938 2.929687,3.125 5.234375,3.125 2.78125,0 5.941406,-1.425781 9.484375,-4.28125 3.550781,-2.851562 5.988281,-5.988281 7.3125,-9.40625 0.5625,-1.382812 0.84375,-2.492188 0.84375,-3.328125 z m -4.28125,0.828125 c 0,0.835938 -0.765625,2.226562 -2.296875,4.171875 -2.511719,3.273437 -5.296875,5.539063 -8.359375,6.796875 -0.835937,0.34375 -1.496094,0.515625 -1.984375,0.515625 -1.179688,0 -2.078125,-1.039063 -2.703125,-3.125 C 8.242188,-25.265625 8.03125,-26.3125 8.03125,-26.9375 c 0,-0.757812 0.523438,-2.21875 1.578125,-4.375 0.695313,-1.46875 1.21875,-2.390625 1.5625,-2.765625 0.34375,-0.382813 0.898437,-0.753906 1.671875,-1.109375 0.550781,-0.207031 1.035156,-0.414062 1.453125,-0.625 0.695313,-0.34375 1.601563,-0.515625 2.71875,-0.515625 1.8125,0 3.34375,0.382813 4.59375,1.140625 1.601563,1.054688 2.40625,2.0625 2.40625,3.03125 z m 0,0"
               id="path34"
               style="stroke:#000000;stroke-width:3" />
          </g>
        </g>
      </g>
      <g
         fill="#000000"
         fill-opacity="1"
         id="g40"
         style="stroke:#000000;stroke-width:3">
        <g
           transform="translate(468.12223,137.11172)"
           id="g39"
           style="stroke:#000000;stroke-width:3">
          <g
             id="g38"
             style="stroke:#000000;stroke-width:3">
            <path
               d="m 25.46875,-41.96875 c -2.15625,-3.40625 -4.625,-5.109375 -7.40625,-5.109375 -1.042969,0 -2.210938,0.3125 -3.5,0.9375 -1.292969,0.625 -2.585938,1.511719 -3.875,2.65625 -1.28125,1.148437 -2.375,2.679687 -3.28125,4.59375 -0.898438,1.917969 -1.382812,4.023437 -1.453125,6.3125 0,1.886719 0.347656,3.453125 1.046875,4.703125 1.039062,2.085938 2.46875,3.125 4.28125,3.125 1.945312,0 4.140625,-1.179688 6.578125,-3.546875 1.175781,-1.25 2.007813,-1.875 2.5,-1.875 0.550781,0 0.828125,0.871094 0.828125,2.609375 0,0.625 -0.03125,1.460938 -0.09375,2.5 -1.054688,19.773438 -1.921875,30.421875 -2.609375,31.953125 -0.210937,0.757813 -0.699219,1.457031 -1.46875,2.09375 -0.492187,0.34375 -1.070313,0.566406 -1.734375,0.671875 -0.65625,0.101562 -1.992188,0.15625 -4,0.15625 C 8.695312,9.8125 6.8125,9.601562 5.625,9.1875 4.445312,8.769531 3.0625,7.796875 1.46875,6.265625 c -1.117188,-0.980469 -2.226562,-2.25 -3.34375,-3.8125 -1.113281,-1.5625 -1.671875,-2.65625 -1.671875,-3.28125 0,-0.351563 -0.3125,-0.894531 -0.9375,-1.625 -0.625,-0.726563 -1.078125,-1.09375 -1.359375,-1.09375 0,0 -0.101562,0.074219 -0.3125,0.21875 -0.207031,0.136719 -0.414062,0.429687 -0.625,0.875 -0.207031,0.449219 -0.3125,0.953125 -0.3125,1.515625 0,1.875 0.871094,4.132812 2.609375,6.78125 1.742187,2.644531 3.828125,4.769531 6.265625,6.375 1.457031,0.96875 2.722656,1.625 3.796875,1.96875 1.082031,0.351562 2.457031,0.53125 4.125,0.53125 0.84375,0 1.890625,-0.03906 3.140625,-0.109375 0.07031,0 0.175781,0 0.3125,0 2.851562,0 5.738281,-1.078125 8.65625,-3.234375 1.320312,-2.15625 2.332031,-8.492188 3.03125,-19 0.207031,-2.914062 0.347656,-4.96875 0.421875,-6.15625 0,0 0.03516,0 0.109375,0 0.132812,-0.695312 0.285156,-3.0625 0.453125,-7.09375 0.175781,-4.039062 0.265625,-7.941406 0.265625,-11.703125 0,-5.914063 -0.210938,-9.046875 -0.625,-9.390625 z m -10.125,0.109375 c 0.695312,-0.414063 1.535156,-0.625 2.515625,-0.625 1.25,0 2.046875,0.277344 2.390625,0.828125 0.28125,0.34375 0.421875,0.761719 0.421875,1.25 0,1.742188 -1.167969,3.96875 -3.5,6.6875 -2.335937,2.710938 -4.089844,4.136719 -5.265625,4.28125 -0.699219,-0.144531 -1.226562,-0.507812 -1.578125,-1.09375 C 9.984375,-31.125 9.8125,-31.804688 9.8125,-32.578125 c 0,-0.832031 0.242188,-1.597656 0.734375,-2.296875 0.488281,-0.832031 0.800781,-1.628906 0.9375,-2.390625 0.07031,-0.625 0.488281,-1.375 1.25,-2.25 0.769531,-0.875 1.640625,-1.65625 2.609375,-2.34375 z m 0,0"
               id="path37"
               style="stroke:#000000;stroke-width:3" />
          </g>
        </g>
      </g>
    </g>
  </g>
  <path
     style="font-size:52.0364px;line-height:1.25;font-family:Chenyuluoyan;-inkscape-font-specification:Chenyuluoyan;letter-spacing:0px;word-spacing:0px;stroke-width:1.30091"
     d="m 151.9139,124.69718 q -0.35572,0 -1.21961,0.55899 -0.20326,0.10163 -0.66061,0.35571 -3.15064,1.72777 -4.16698,2.08349 -0.96552,0.3049 -3.60799,0.66062 -2.08349,0.3049 -3.608,0.50817 -0.86388,0.15245 -2.18512,0.45735 -1.27042,0.25408 -2.28675,0.45735 -1.01634,0.20327 -2.23594,0.40653 -1.16879,0.15246 -2.28676,0.15246 -1.11797,-0.0508 -2.08349,-0.30491 -0.3049,-0.10163 -0.71143,-0.96551 -0.20327,-0.45736 0,-0.45736 0.10163,0 0.20326,0.0508 0.35572,-0.0508 1.01634,-0.45735 0.66062,-0.40653 2.03267,-0.3049 1.77859,-0.0508 3.81126,-0.50817 2.08349,-0.45735 3.55718,-0.55898 1.8294,-0.15245 3.04901,-0.35572 1.2196,-0.20327 1.88022,-0.35572 0.66062,-0.20327 2.79492,-0.81307 0.81307,-0.20326 2.38839,-0.76225 1.57532,-0.55898 2.69329,-0.96552 1.16879,-0.45735 1.27042,-0.50817 0.96552,-0.6098 1.2196,0.3049 0.25409,0.86389 -0.40653,1.21961 -0.20327,0.10163 -0.45735,0.10163 z m 22.56266,-7.11435 q 0.55898,0 1.06715,-0.40653 0.81307,-0.71144 1.47368,-1.11797 0.71144,-0.40654 1.11797,-0.50817 0.40654,-0.15245 1.52451,-0.50817 5.69148,-2.18512 8.89294,-2.49002 0.6098,0 1.01633,0.0508 0.40654,0 0.76226,0.15245 0.35571,0.15245 0.50816,0.20327 0.20327,0.0508 0.45735,0.45735 0.30491,0.35572 0.40654,0.50817 0.10163,0.15245 0.45735,0.76225 0.40653,0.6098 0.6098,0.9147 l 0.40654,0.76226 0.15245,2.94737 q 0,0.96552 0.15245,6.14883 0.15245,5.1325 0.10163,9.09621 0,3.96371 -0.25408,5.58985 0.0508,0.76225 -0.55899,1.32123 -0.55898,0.50817 -1.2196,0.10164 -0.45735,-0.40654 -0.86389,-1.57532 -0.40653,-1.16879 -1.01633,-1.88022 -0.55899,-0.71144 -1.72777,-0.60981 -2.08349,0.15245 -5.7423,1.93104 -3.65881,1.72777 -4.42106,1.98186 -1.06716,0.35571 -1.47369,0 -0.35572,-0.40654 -0.35572,-1.16879 0.66062,-1.11797 3.15064,-1.88022 2.49003,-0.76225 3.15065,-1.16879 0.9147,-0.71143 3.70962,-1.5245 2.84574,-0.86389 4.31943,-0.50817 0.71143,0.3049 0.50817,1.5245 -0.0508,0.60981 0.20326,0.86389 0.20327,0.15245 0.25409,0.15245 0.0508,0 0.10163,-0.20327 0.10164,-0.40653 -0.0508,-7.5717 -0.10163,-7.21598 -0.25408,-10.46826 -0.10163,-1.93104 -0.25408,-2.28675 -0.10164,-0.35572 -0.91471,-1.62614 -0.55898,-0.71144 -0.81306,-0.81307 -0.20327,-0.15245 -1.27042,-0.10163 -1.32124,0.10163 -3.65881,1.01633 -2.28676,0.86389 -3.25228,1.06715 -2.74411,0.66062 -4.31943,2.13431 -0.76225,0.71143 -0.96552,1.8294 -0.15245,1.06716 -0.0508,2.33758 0.15245,1.27042 0,3.049 -0.50817,4.57352 -0.55899,9.85846 0.0508,2.59166 -0.15245,3.45555 -0.15245,0.81306 -0.66062,1.01633 -0.45735,0.20327 -0.86388,0 -0.40654,-0.25408 -0.55899,-0.71143 -0.20326,-2.08349 0.35572,-8.89294 0.55899,-6.80945 0.20327,-9.80765 -0.25409,-2.03267 -0.0508,-2.69329 0.25409,-0.71143 1.21961,-0.71143 z m -6.45374,23.52818 q 0,0.0508 -0.0508,0.15245 -0.10164,0.40653 -0.15246,0.66062 -0.0508,0.25408 -0.20326,0.66061 -0.15245,0.40654 -0.3049,0.6098 -0.15245,0.15246 -0.40654,0.35572 -0.20326,0.15245 -0.50817,0.10164 -0.3049,-0.0508 -0.66061,-0.3049 -0.35572,-0.10164 -0.40654,-2.49003 0,-2.38839 0.15245,-3.04901 0.20327,-2.18512 0.3049,-3.81126 0.10164,-1.62613 0.0508,-2.49002 0,-0.86388 -0.0508,-2.59165 -0.0508,-1.77859 -0.0508,-3.25228 0,-0.20327 0,-0.55898 -0.0508,-2.49003 -0.15245,-2.43921 -0.10164,0 -0.45736,0.66062 -0.40653,0.76225 -0.66061,1.2196 -0.76226,1.47369 -1.52451,2.69329 -0.71143,1.16879 -1.2196,2.13431 -0.45735,0.96552 -1.11797,2.89655 -0.0508,0.45735 -0.6098,1.21961 -0.50817,0.71143 -0.76225,0.81307 -1.16879,0 -1.32124,-0.76226 -0.10163,-0.76225 0.66062,-1.8294 0.45735,-1.01634 0.96552,-2.28676 0.50816,-1.27042 1.01633,-2.23594 0.55899,-1.01633 1.52451,-2.4392 0.45735,-0.6098 1.37205,-3.15064 0.96552,-2.59166 1.72777,-3.45555 0.25409,-0.45735 0.9147,-1.37205 0.71144,-0.96552 1.11797,-1.72777 0.15245,-0.81307 0.76226,-0.96552 0.6098,-0.15245 1.16878,0.3049 0.40654,0.25409 -0.10163,1.37205 -0.45735,1.06716 -1.21961,2.28676 -0.71143,1.16879 -0.76225,1.37205 0.55899,0.45736 1.11797,0.96552 l -0.10163,0.86389 q -0.0508,0.81307 -0.10163,4.62433 -0.0508,3.76044 -0.15246,7.06353 -0.0508,3.30309 -0.20326,3.55718 -0.15245,1.11797 -0.15245,1.42287 0.0508,0.3049 0.35571,0.6098 0.35572,0.3049 0.40654,1.11797 0.10163,0.81307 -0.20327,1.47369 z m 11.07806,-18.09078 q -0.86388,0.71143 -1.42287,-0.3049 -0.50816,-0.96552 0.20327,-1.37206 0.0508,-0.0508 0.15245,-0.10163 0.3049,-0.35572 1.37205,-0.55899 1.11797,-0.20326 1.88023,-0.50816 0.81306,-0.35572 0.66061,-1.11797 0.0508,-0.50817 0.10164,-0.86389 0.0508,-0.35572 0.20327,-0.76225 0.15245,-0.45735 0.35571,-0.6098 0.20327,-0.15245 0.50817,-0.25409 0.35572,-0.10163 0.81307,0.25409 0.20327,0.15245 0.15245,0.50817 -0.0508,0.3049 -0.10163,0.66061 -0.0508,0.3049 -0.10164,0.55899 0,0.25408 0.25409,0.25408 0.25408,0 0.81307,-0.35572 0.76225,-0.3049 3.6588,-1.88022 0.71144,-0.45735 1.11797,0.10164 0.40654,0.55898 -0.10163,1.16878 -0.50817,0.40654 -2.54084,1.57532 -1.98185,1.11797 -3.15064,1.67696 -0.3049,0.3049 -0.6098,1.62614 -0.25409,1.27042 -0.40654,1.5245 -0.20326,0.25408 -0.50816,0.25408 -0.30491,0 -0.50817,-0.20326 -0.3049,-0.25409 -0.0508,-1.72777 0,-0.20327 -0.0508,-0.25409 -0.0508,-0.0508 -0.20326,0 -1.32124,0.10164 -2.49003,0.71144 z m 7.67334,2.89655 q 0.6098,0.55899 0.66062,1.27042 0.10163,0.66062 -0.25409,1.32124 -0.35571,0.6098 -0.96551,1.2196 -1.06716,0.96552 -0.50817,0.96552 0.15245,0 0.45735,-0.0508 0.96552,-0.10164 1.16878,0.40653 0.20327,0.45735 -0.50816,1.2196 -0.66062,0.71144 -2.03268,1.27042 -1.32123,0.50817 -1.77858,0.91471 -0.35572,0.66061 -1.11797,0.45735 -0.55899,-0.15245 -0.66062,-0.55899 -0.10163,-0.45735 -0.20327,-2.7441 -0.10163,-3.65881 -0.10163,-4.11617 0.0508,-0.45735 0.35572,-0.76225 0.3049,-0.35571 0.96552,-0.3049 0.35571,0.15245 2.08348,-0.35572 1.77859,-0.55898 2.43921,-0.15245 z m -3.60799,3.81126 q 0,0.40654 0.0508,0.50817 0.0508,0.10164 0.15245,0.0508 0.60981,-0.45735 1.21961,-1.37205 0.45735,-0.76226 -0.3049,-0.60981 -0.15245,0.0508 -0.35572,0.15245 -0.76225,0.40654 -0.76225,1.27042 z m 24.59532,-11.99276 q -1.11797,0 -1.42287,-0.0508 -0.25408,-0.0508 -0.45735,-0.25408 -0.35571,-0.40654 -0.10163,-1.32124 0,-0.10163 -0.10163,-0.15245 -0.10164,-0.0508 -0.40654,-0.10163 -0.66062,-0.10164 -1.32124,-0.50817 -0.6098,-0.40653 -1.8294,-1.57532 -0.66062,-0.6098 -0.9147,-0.71144 -0.25409,-0.15245 -0.50817,-0.10163 -0.25408,0.0508 -0.50817,-0.0508 -0.25408,-0.15245 -0.25408,-0.35571 0.3049,-0.3049 1.16878,-1.27042 0.86389,-0.96552 1.32124,-1.47369 0.50817,-0.55899 1.2196,-1.32124 0.76226,-0.81307 1.37206,-1.42287 0.66062,-0.6098 1.27042,-1.11797 3.09982,-2.89655 4.52269,-1.72777 0.35572,0.25409 0.10164,0.6098 -0.20327,0.3049 -1.32124,1.01634 -1.2196,0.71143 -5.94557,5.08168 -0.6098,0.45735 -0.6098,0.66062 0,0.20326 1.16879,1.37205 1.2196,1.16879 1.57532,1.32124 0.50817,0.20326 0.71143,0.55898 0.25409,0.35572 -0.0508,0.86389 h 1.88022 q 1.77859,0 2.49002,0.15245 0.76225,0.15245 1.11797,0.55898 0.50817,0.6098 0.15245,1.27042 -0.3049,0.66062 -1.98185,2.33758 l -1.82941,1.8294 1.27042,-0.10163 q 1.72777,-0.35572 2.13431,0.45735 0.25408,0.45735 -0.3049,1.01633 -1.01634,0.91471 -4.31943,0.91471 h -1.32124 q -0.50817,-0.35572 -0.76225,-1.01634 -0.20327,-0.71143 0.35572,-1.27042 0.10163,-0.10163 0.6098,-0.55898 3.60799,-3.09983 3.55718,-3.45555 -0.10164,-0.10163 -1.72778,-0.10163 z m 5.48822,-9.90928 q 0.15245,-0.35571 0.3049,-0.86388 0.15245,-0.50817 0.20327,-0.66062 0.0508,-0.15245 0.25408,-0.3049 0.20327,-0.20327 0.45735,-0.15245 0.3049,0.0508 0.76225,0.25408 0.3049,0.3049 0.20327,0.91471 -0.15245,1.16878 -1.2196,3.25227 -1.01634,2.08349 -1.88022,3.04901 -1.32124,1.37205 -1.52451,0.6098 -0.20327,-0.6098 0.9147,-2.49002 0.96552,-1.88022 1.52451,-3.608 z m -6.70782,3.76045 q -0.40653,-0.9147 0.15245,-1.82941 0.40654,-0.71143 1.11797,-0.15245 0.35572,0.20327 0.9147,1.57532 1.01634,1.93104 0.20327,2.54084 -0.66062,0.45735 -1.5245,-0.66062 -0.15245,-0.20326 -0.3049,-0.55898 -0.45736,-0.86389 -0.55899,-0.9147 z m 39.6371,28.4574 q 0.35572,-0.0508 -0.20326,-2.1343 -0.50817,-2.13431 -1.27042,-4.72596 -0.76226,-2.64248 -0.81307,-3.35391 0,-0.35572 0.20326,-0.40654 0.25409,-0.0508 0.55899,0.25409 0.86388,0.86388 1.5245,3.40472 0.0508,0.15245 0.40654,0.96552 0.35571,0.76225 0.50816,1.2196 0.20327,0.40654 0.50817,1.32124 0.3049,0.86389 0.40654,1.42287 0.15245,0.55899 0.25408,1.37206 0.10163,0.81306 0,1.37205 -0.10163,0.50817 -0.40653,1.06715 -0.3049,0.55899 -0.81307,0.86389 -1.47369,0.55898 -2.38839,0.66062 -0.86389,0.10163 -2.64247,0.15245 -1.72778,0.0508 -3.86208,0.3049 -3.96371,0.35571 -6.0472,0 -2.08349,-0.35572 -4.11616,-1.57532 -0.15245,-0.0508 -0.35572,-0.10164 -0.15245,-0.10163 -0.50817,-0.45735 -0.35571,-0.35572 -0.66061,-0.81307 -0.30491,-0.45735 -0.55899,-1.32123 -0.20327,-0.91471 -0.20327,-1.98186 -0.0508,-1.88022 0.0508,-3.25227 0.15245,-1.42287 0.55898,-3.50636 0.40654,-2.08349 0.55899,-2.94738 0.0508,-0.76225 -0.10163,-2.54084 -0.10164,-1.77859 -0.0508,-2.7441 -0.3049,-1.57533 -0.25408,-2.08349 0.0508,-0.50817 0.50816,-0.76226 0.76226,-0.40653 1.27042,-0.0508 0.55899,0.35572 0.81307,1.47369 0.25409,1.11796 0.20327,2.84574 -0.0508,1.42287 -0.50817,4.42106 -0.45735,2.99819 -0.50817,4.62433 -0.15245,0.76225 -0.3049,1.98185 -0.10163,1.2196 0,2.69329 0.10164,1.42287 0.50817,1.93104 0.45735,0.71143 1.37205,1.16879 1.21961,0.55898 2.59166,0.81306 1.37205,0.25409 2.23594,0.25409 0.9147,0 2.94737,-0.15245 2.08349,-0.15245 3.20146,-0.20327 0.86389,-0.0508 1.77859,-0.0508 0.96552,-0.0508 1.37205,-0.0508 0.40654,0 0.86389,-0.10164 0.45735,-0.15245 0.71143,-0.40653 0.3049,-0.3049 0.66062,-0.86389 z m -32.62438,-14.17788 q -0.40654,0 -1.67696,0.50817 -1.27042,0.45735 -1.37205,0.66061 -0.20327,0.40654 -0.45735,1.47369 -0.25408,1.06715 -0.20327,1.2196 0.10164,0.20327 0.50817,-0.0508 0.15245,-0.0508 0.66062,-0.35572 0.50817,-0.35572 0.9147,-0.55899 0.40654,-0.25408 0.9147,-0.3049 0.50817,-0.10163 0.66062,0.40654 0.55899,0.50817 0.35572,1.72777 -0.20327,1.37205 -1.42287,0.6098 -0.15245,-0.25408 -0.71144,0.0508 -0.50816,0.25408 -1.11797,0.66062 -0.55898,0.35571 -0.71143,0.35571 -1.11797,0.25409 -1.88022,0.10164 -0.76225,-0.15245 -1.01634,-0.81307 -0.25408,-0.71144 0.45735,-2.08349 0.50817,-1.32124 0.35572,-1.47369 -0.25408,-0.25408 -3.30309,1.77859 -0.71144,0.3049 -1.01634,1.32124 -0.25408,1.01633 -0.35571,2.79492 -0.0508,1.77859 -0.15245,2.49002 -0.0508,0.76226 -0.30491,2.79493 -0.25408,1.98185 -0.50816,3.60799 -0.20327,1.62614 -0.10164,1.88022 0.0508,0.0508 0.25409,0.0508 0.25408,0.0508 0.3049,0.0508 0.10163,0.0508 0.25408,0.10163 0.15245,0.0508 0.20327,0.15245 0.0508,0.10163 0.0508,0.20327 0,0.15245 -0.10164,0.35571 -0.0508,0.20327 -0.20327,0.50817 -0.35571,0.6098 -0.86388,1.11797 -0.50817,0.55899 -0.81307,0.55899 -0.3049,0 -1.11797,-0.81307 l 0.0508,-2.43921 q 0.0508,-2.1343 0.45735,-5.38658 0.45735,-3.30309 0.45735,-6.40292 0.10163,-4.42106 0.15245,-5.13249 0.0508,-1.2196 0.66062,-1.93104 0.6098,-0.71144 1.57532,-0.10163 0.25408,0.3049 0.15245,1.72777 0,0.20326 0.0508,0.3049 0.0508,0.10163 0.20326,0.0508 0.96552,-0.25409 2.08349,-1.06716 1.16879,-0.81307 2.79493,-1.2196 0.6098,-0.15245 1.5245,-0.50817 0.96552,-0.35572 1.57532,-0.55898 0.6098,-0.25409 1.57532,-0.35572 1.01634,-0.15245 1.77859,0.15245 0.55898,0.15245 1.57532,1.11797 1.06715,0.96552 1.11797,1.42287 0.0508,0.25408 0.15245,11.58623 0.0508,5.99638 -0.0508,7.62252 -0.10163,1.67695 -0.6098,2.54084 -0.35572,0.9147 -1.32123,0.86388 -0.96552,0 -1.16879,-0.96552 -0.15245,-0.6098 -0.0508,-0.76225 0.10164,-0.15245 0.45735,-0.35571 0.35572,-0.20327 0.45735,-0.40654 0.20327,-2.59166 0.10164,-8.4864 -0.0508,-5.89475 -0.45735,-8.38478 -0.10164,-0.25408 0.15245,-1.47368 0.3049,-1.27042 0,-1.37206 -0.3049,-0.35571 -0.96552,-0.76225 -0.66062,-0.40653 -0.96552,-0.40653 z m -2.13431,13.0091 q 0,0.20326 0.71144,0.71143 0.71143,0.45735 1.62614,1.37206 0.9147,0.9147 1.01633,1.2196 0.0508,0.3049 -0.20327,0.6098 -0.20326,0.25408 -0.50816,0.25408 -0.20327,-0.10163 -1.72777,-0.96551 -1.47369,-0.91471 -1.88023,-0.91471 -0.25408,0 -0.71143,0.96552 -0.76225,1.72777 -1.77859,1.93104 -1.06715,0.20327 -1.27042,-0.35572 -0.15245,-0.55898 0.66062,-1.57532 0.15245,-0.3049 0.45735,-0.76225 0.35572,-0.50817 0.50817,-0.76225 0.20327,-0.3049 0.3049,-0.6098 0.10163,-0.3049 -0.0508,-0.50817 -0.15245,-0.20327 -0.6098,-0.3049 -0.40653,-0.20327 -0.96552,-0.71144 -0.55898,-0.50817 -0.55898,-0.76225 0,-0.0508 0.0508,-0.20327 0.15245,-0.6098 0.25409,-0.9147 0.15245,-0.3049 0.50817,-0.6098 0.35571,-0.35572 0.9147,-0.50817 0.3049,-0.10163 1.27042,-0.71143 0.96552,-0.6098 1.77859,-0.96552 0.86388,-0.35572 1.32123,-0.10164 0.40654,0.25409 0.40654,0.66062 0.0508,0.40654 -0.35572,1.27042 -1.16879,2.89656 -1.16879,3.25228 z m -1.11797,-2.03267 q -0.15245,-0.40654 -1.16878,0.45735 0,0.20326 0.3049,0.45735 0.3049,0.25408 0.40653,0.20326 0.20327,-0.10163 0.40654,-0.55898 0.20326,-0.45735 0.0508,-0.55898 z m 73.02374,-21.29224 q -0.55898,0.20326 -0.76225,0.40653 -0.20327,0.20327 -0.3049,0.66062 -0.10163,0.45735 -0.20327,0.66062 -0.45735,0.50817 -0.6098,4.01453 -0.15245,3.50635 0.20327,5.69148 0.25408,0.6098 0.10163,2.79492 -0.10163,2.18512 -0.10163,3.35391 0,1.93104 -0.0508,2.43921 -0.0508,0.50816 -0.25408,0.9147 -0.45735,0.86388 -1.06715,0.86388 -0.60981,-0.0508 -2.54084,-1.01633 -1.27042,-0.55899 -2.08349,-1.11797 -0.76226,-0.6098 -1.11797,-1.01634 -0.35572,-0.45735 -1.16879,-1.57532 -0.35572,-0.6098 -0.40653,-0.76225 0,-0.20327 0.15245,-0.45735 0.20326,-0.3049 0.50816,-0.3049 0.35572,0 0.60981,0.35571 0.9147,1.27042 1.8294,1.98186 0.9147,0.66062 2.33757,1.11797 0.81307,0.40653 0.96552,0.0508 0.20327,-0.35572 0.3049,-2.69329 0.0508,-0.81307 0.15245,-1.82941 0.10164,-1.01633 0.0508,-1.27042 0,-0.3049 -0.10163,-1.42287 -0.15245,-0.45735 -0.35572,-4.26861 l -0.20327,-2.59166 q -0.0508,-0.0508 0.0508,-0.76225 0.10163,-0.76225 0.0508,-0.81307 -0.15245,-0.25408 -0.45736,-0.15245 -0.3049,0.10164 -0.76225,0.40654 -0.45735,0.25408 -0.50817,0.25408 -0.20326,0 -1.5245,0.66062 -1.06715,0.55898 -1.62614,0.66062 -0.55898,0.0508 -1.06715,-0.25409 -0.66062,-0.40653 -0.55898,-0.96552 0.15245,-0.6098 0.96552,-0.81306 1.67695,-0.71144 2.38838,-1.01634 0.76226,-0.35572 1.93104,-1.01634 1.21961,-0.66061 2.13431,-1.42287 0.66062,-0.55898 1.62614,-1.16878 1.01633,-0.66062 1.57532,-1.11797 0.0508,-0.0508 0.3049,-0.25409 0.3049,-0.25408 0.45735,-0.35571 0.15245,-0.10164 0.45735,-0.25409 0.3049,-0.20327 0.50817,-0.25408 0.20326,-0.10164 0.45735,-0.10164 0.25408,0 0.40653,0.15245 0.3049,0.20327 0.3049,0.81307 0.0508,0.55899 -0.20326,0.81307 -1.98186,1.57532 -2.79493,1.98186 z m -17.58261,2.54084 q 0.20327,0 0.35572,0.20326 0.15245,0.15245 0.15245,0.40654 0,0.20327 -1.01634,1.2196 -0.96552,0.96552 -1.5245,1.37206 -0.40653,0.25408 -1.06715,0.96551 -0.66062,0.71144 -0.76226,1.06716 -0.25408,0.71143 -0.25408,2.89655 0,2.13431 0.25408,2.28676 0.20327,0.0508 1.37206,-0.96552 1.62614,-1.47369 1.88022,-0.81307 0.20327,0.25409 -0.15245,0.66062 -0.35572,0.35572 -0.9147,0.76225 -0.55899,0.40654 -0.66062,0.55899 -2.03267,3.09982 -1.88022,4.26861 0.0508,1.8294 -0.15245,4.11616 -0.15245,2.23594 -0.15245,2.64247 0,1.47369 -0.76226,1.67696 -0.71143,0.15245 -1.47368,-0.76225 -0.50817,-0.50817 -2.33758,-1.52451 -1.8294,-1.01633 -2.03267,-1.77859 0,-0.81307 3.608,-4.37024 1.11796,-1.11797 1.32123,-1.57532 0.35572,-0.71144 0.10164,-4.98005 -0.0508,-1.16878 -0.20327,-1.32123 -0.15245,-0.15246 -0.71144,0.10163 -0.40653,0.3049 -1.77858,0.86388 -1.37206,0.55899 -1.98186,0.66062 -0.66062,0.25409 -1.47369,-0.55898 -0.50816,-0.55899 -0.0508,-0.86389 0.20326,-0.10163 1.98185,-0.81307 1.77859,-0.71143 2.94738,-1.32123 1.2196,-0.6098 1.57532,-1.01634 0.20326,-0.3049 0.20326,-0.96552 0.0508,-0.55898 0.10164,-0.9147 0.10163,-0.40653 0.20326,-0.9147 0.15245,-0.55899 0.35572,-0.76225 0.25409,-0.20327 0.6098,-0.30491 0.40654,-0.15245 0.91471,0.20327 0.25408,0.15245 0.25408,0.3049 0.0508,0.10164 -0.10163,0.40654 -0.3049,0.86388 0,0.9147 0.40653,0 2.28675,-1.42287 0.71144,-0.6098 0.96552,-0.6098 z m -6.30128,19.71691 q 0,-0.20326 0.0508,-1.01633 0.10163,-0.81307 0.10163,-1.32124 0,-0.55898 -0.15245,-0.9147 -0.15245,-0.15245 -0.20327,-0.15245 -0.0508,0 -0.25408,0.20327 -0.55899,0.66061 -1.27042,1.62613 -0.66062,0.96552 -0.45735,1.06716 0.10163,0.25408 0.86388,0.76225 0.76225,0.50817 1.01634,0.45735 0.20326,0 0.25408,-0.10163 0.0508,-0.15245 0.0508,-0.60981 z m 44.31224,-23.93471 q -0.76225,0.10164 -0.3049,-1.32123 0.40653,-1.16879 0.40653,-1.27042 0.10164,-4.2178 -0.20326,-4.98005 -0.81307,-1.57532 0.55898,-2.99819 0.3049,-0.15245 0.66062,-0.10163 0.35572,0 0.50817,0.25408 0.10163,0.25408 0.3049,2.59166 0.20326,2.28675 0.15245,2.49002 -0.10164,0.20327 0.0508,0.71143 0.15246,0.50817 -0.10163,1.88023 -0.20327,1.32123 -0.50817,1.77858 -0.15245,0.3049 -0.71143,0.66062 -0.55899,0.3049 -0.81307,0.3049 z m -9.75683,5.69148 q 10.31581,-4.92922 15.95648,-7.72415 3.76044,-1.62614 6.25046,-2.23594 0.71144,-0.15245 1.37206,0.0508 0.66062,0.15245 0.81307,0.55898 0.20326,0.60981 -0.81307,1.82941 -1.06715,1.32124 -3.09983,3.09982 -1.98185,1.77859 -3.20145,2.49003 -0.55899,0.3049 -0.76226,0.10163 -0.25408,-0.25408 -0.0508,-0.6098 0.25408,-0.40654 1.16878,-1.27042 1.06716,-1.06715 2.18512,-2.33757 1.11797,-1.27042 1.11797,-1.42287 -0.3049,-0.15246 -1.2196,0.15245 -0.9147,0.25408 -2.03267,0.76225 -1.11797,0.45735 -1.27042,0.50817 -1.5245,0.76225 -5.38658,2.59165 -3.86208,1.77859 -6.80945,3.30309 -0.25409,0.15245 -1.47369,0.86389 -1.2196,0.66062 -2.1343,1.11797 -0.91471,0.40653 -1.77859,0.66062 -0.35572,0.10163 -0.6098,0.15245 -0.25409,0 -0.45735,-0.0508 -0.15246,-0.10163 -0.25409,-0.15245 -0.10163,-0.10163 -0.25408,-0.3049 -0.15245,-0.20327 -0.25409,-0.3049 -0.20326,-0.35572 0.25409,-1.47369 0.71143,-1.77859 1.27042,-4.11616 0.35571,-1.32124 0.66062,-1.8294 0.35571,-0.50817 0.9147,-0.50817 0.45735,0 0.6098,0.15245 0.15245,0.15245 0.25408,0.6098 0.10164,0.45735 -0.45735,2.28676 -0.50817,1.77858 -0.6098,2.23594 -0.10163,0.81306 0.10163,0.81306 z m 12.75502,6.86027 q -0.35572,0.40654 -0.50817,0.76225 -0.10163,0.35572 -0.35572,0.76226 -0.50816,0.45735 -0.40653,0.86388 0.15245,0.35572 0.45735,0.50817 0.35572,0.15245 0.81307,0.40653 0.45735,0.20327 0.6098,0.45735 0.40654,0.45736 0.71144,1.21961 0.35571,0.71143 0.35571,1.16878 0,0.40654 0.25409,0.86389 0.3049,0.45735 0.50817,0.40653 4.77678,-1.32123 5.64066,-1.47368 1.47369,-0.25409 2.43921,-0.76225 0.6098,-0.30491 0.81307,-0.35572 0.25408,-0.0508 0.6098,0.0508 0.86388,0.25409 1.16878,0.50817 0.3049,0.20327 0.3049,0.6098 0.10164,0.55899 -0.3049,0.91471 -0.40653,0.3049 -0.86388,0.40653 -0.45735,0.0508 -1.2196,0.10163 -1.98186,0.35572 -4.92923,1.16879 -2.94738,0.81307 -4.01453,1.37205 -0.10163,0.15245 -0.10163,0.86389 0,1.62614 -0.86389,4.42106 -0.86389,2.79492 -1.57532,3.45554 -0.3049,0.3049 -0.6098,0.50817 -0.3049,0.20327 -0.6098,0.20327 -0.3049,0.0508 -0.50817,0.0508 -0.20327,0 -0.6098,-0.20327 -0.35572,-0.20327 -0.55899,-0.3049 -0.15245,-0.10164 -0.66062,-0.45735 -0.45735,-0.35572 -0.66062,-0.50817 -0.35571,-0.25409 -0.86388,-1.16879 -0.45735,-0.96552 -0.45735,-1.37205 0,-0.3049 0.20327,-0.55899 0.20326,-0.3049 0.35571,-0.25408 0.15245,0.0508 0.66062,0.9147 0.50817,0.9147 0.86389,1.2196 0.35571,0.30491 0.9147,0.35572 0.50817,0.10164 0.86388,-0.15245 0.35572,-0.25408 0.45736,-0.50817 0.15245,-0.25408 0.35571,-0.81306 0.25409,-0.60981 0.3049,-0.76226 1.16879,-3.50636 0.66062,-4.52269 -0.9147,0.0508 -2.64247,0.6098 -1.67696,0.50817 -2.54084,0.6098 -2.84574,0.6098 -4.06534,0.6098 -0.45736,0 -0.81307,-0.35571 -0.3049,-0.40654 -0.3049,-0.91471 0,-0.35571 0.0508,-0.45735 0.10164,-0.15245 0.55899,-0.35572 0.96552,-0.25408 3.04901,-0.45735 2.08348,-0.20326 3.60799,-0.71143 2.54084,-0.66062 3.09982,-1.01634 0.20327,-0.10163 0.15245,-0.55898 0,-0.45735 -0.25408,-0.9147 -0.3049,-0.55899 -0.86389,-1.16879 -0.50816,-0.6098 -0.86388,-0.76225 -1.93104,-1.42287 -0.71144,-2.89656 0.66062,-1.42287 2.94738,-4.8276 0.3049,-0.35571 0.35571,-0.55898 0.10164,-0.25408 -0.0508,-0.3049 -0.15245,-0.10164 -0.45735,-0.0508 -0.35572,0.25409 -0.76226,-0.25408 -0.35571,-0.50817 -0.55898,-0.96552 0,-0.20327 0.40653,-0.50817 0.40654,-0.3049 0.91471,-0.45735 1.01633,-0.3049 1.88022,0.3049 0.86388,0.55898 0.76225,1.62614 0.0508,0.66062 -0.6098,1.72777 -0.66062,1.11797 -1.93104,2.64247 z m 56.40666,1.77859 q 0.6098,0.45735 0.81307,0.45735 0.0508,-0.10163 1.16878,0.45735 1.16879,0.50817 2.49003,1.16879 1.37205,0.66062 1.67695,0.76225 0.66062,0.15245 0.76225,0.71144 0.15245,0.55898 -0.35572,1.11797 -0.81306,0.96551 -1.88022,-0.0508 -0.6098,-0.6098 -2.54084,-1.47369 -1.88022,-0.9147 -2.23594,-0.76225 -0.0508,0 -0.10163,0.0508 0,0.0508 -0.0508,0.20326 0,0.10164 -0.0508,0.25409 -0.0508,0.15245 -0.10164,0.50817 -0.0508,0.3049 -0.15245,0.66061 -0.0508,0.3049 -0.20326,0.91471 -0.15245,0.55898 -0.25409,1.16878 -1.27042,5.1325 -2.69329,5.99638 -0.50817,0.40654 -1.06715,0.30491 -1.37205,-0.10164 -2.38839,-1.93104 -0.86389,-1.27042 -0.45735,-1.82941 0.3049,-0.35572 0.86388,0.45735 0.76226,1.42287 1.62614,1.37206 0.86389,-0.10164 1.32124,-1.57532 1.01633,-2.54084 1.5245,-5.89475 0.20327,-1.11797 0.0508,-1.32124 0.0508,-0.10163 -1.01634,-0.40653 -1.06715,-0.35572 -2.7441,-0.81307 -1.62614,-0.50817 -1.88023,-0.55899 -0.25408,-0.10163 -0.40653,-0.50816 -0.10163,-0.40654 0.0508,-0.71144 0.50816,-0.50817 1.37205,-0.45735 0.9147,0.0508 1.57532,0.3049 0.71144,0.25408 1.62614,0.6098 0.9147,0.35572 1.42287,0.40654 0.3049,0 0.35572,-0.0508 0.10163,-0.0508 0.15245,-0.35572 0.25408,-1.11797 0.35571,-3.86208 0.15245,-2.79492 -0.0508,-3.70962 -0.15245,-0.35572 -0.50817,-0.3049 -0.3049,0.0508 -1.32124,0.6098 -0.15245,0.0508 -0.71143,0.3049 -0.55899,0.25408 -0.71144,0.35572 -0.10163,0.0508 -0.55898,0.25408 -0.45735,0.15245 -0.6098,0.20327 -0.10164,0 -0.50817,0.10163 -0.35572,0.0508 -0.50817,0 -0.15245,-0.0508 -0.45735,-0.0508 -0.3049,-0.0508 -0.50817,-0.20327 -0.15245,-0.15245 -0.40653,-0.35572 -0.25409,-0.20327 -0.50817,-0.50817 -0.6098,-0.66062 -0.76225,-2.33757 -0.15245,-1.72777 0.35571,-2.59166 0.3049,-0.40653 0.86389,-0.40653 0.55898,0 0.96552,0.50817 0.40653,0.45735 0,0.96552 -0.20327,0.40653 -0.15245,1.11797 0.0508,0.71143 0.35572,1.37205 0.3049,0.66062 0.55898,0.50817 0.9147,-0.0508 2.64247,-1.01634 1.77859,-0.96552 2.79493,-0.96552 0.66062,0.0508 0.9147,0.40654 0.25408,0.3049 0.50817,1.47368 0.20327,0.60981 0.25408,1.62614 0.0508,0.96552 0,1.72777 -0.0508,0.71144 -0.20326,2.03267 -0.10164,1.32124 -0.10164,1.67696 z m -31.70968,-5.03086 q 0.25408,0.0508 0.50816,0 0.25409,-0.0508 0.50817,0 0.25409,0.0508 0.40654,0.3049 0.40653,0.3049 0.55898,0.86388 0.15245,0.50817 0.3049,2.08349 0.25409,2.64248 0.55899,2.64248 0.20326,0 0.76225,-1.88023 1.01633,-1.8294 2.33757,-1.72777 0.50817,-0.10163 1.52451,0.86389 1.06715,0.9147 1.16878,1.42287 0.10164,0.3049 0.35572,0.86388 0.3049,0.55899 0.45735,1.06716 0.15245,0.45735 0.25408,1.01633 0.20327,1.01634 0.40654,1.11797 0.20327,0.0508 0.76225,-0.66062 1.01634,-1.47368 1.42287,-0.86388 0.25409,0.3049 0,1.01633 -0.10163,0.15245 -0.76225,1.27042 -0.66062,1.06716 -0.81307,1.21961 -0.71143,0.86388 -0.71143,2.54084 0,0.86388 -0.30491,2.28675 -0.25408,1.42287 -0.50816,1.98186 -0.3049,0.55898 -0.86389,0.76225 -0.55898,0.15245 -0.96552,-0.20327 -0.25408,-0.45735 -0.20327,-0.66062 0.0508,-0.25408 0.30491,-0.66061 0.3049,-0.40654 0.35571,-0.60981 0.10164,-0.40653 0.15245,-1.01633 0.0508,-0.6098 -0.0508,-0.66062 -0.0508,-0.0508 -1.32124,1.16879 -1.77859,1.72777 -2.28676,1.72777 -0.0508,0 -0.45735,-0.3049 -0.35571,-0.35572 -0.45735,-0.3049 -0.15245,0.0508 -0.20327,0.86388 0.0508,1.27042 -1.11797,1.62614 -0.45735,0 -0.6098,-0.50817 -0.10163,-0.50817 -0.10163,-2.84574 -0.0508,-4.62433 -0.15245,-6.0472 -0.0508,-1.42287 -0.45735,-3.91289 -0.3049,-1.98186 -0.50817,-2.64247 -0.20327,-0.66062 -0.55898,-0.66062 -0.25409,0 -1.11797,0.81307 -0.81307,0.81306 -1.32124,1.5245 -0.9147,1.47369 -1.27042,1.88022 -0.3049,0.35572 -0.66062,0.35572 -0.66062,0 -0.66062,-0.86389 0,-0.35571 0.50817,-1.32123 0.50817,-0.96552 1.06715,-1.57532 0.3049,-0.25409 1.16879,-2.18513 0.9147,-1.98185 1.72777,-3.81126 0.86389,-1.88022 1.16879,-1.88022 0.10163,-0.0508 0.35571,-0.25408 0.25409,-0.25409 0.35572,-0.35572 0.15245,-0.10163 0.45735,-0.15245 0.35572,-0.10163 0.6098,0.15245 0.25409,0.15245 0.15246,0.86389 0,0.50816 -0.60981,1.5245 -0.55898,0.96552 -1.11797,1.8294 -0.55898,0.81307 -0.50816,0.91471 z m 6.657,4.87841 q -1.11797,-0.71144 -1.67696,0.3049 -0.25408,0.3049 -0.40653,0.55899 -0.15245,0.25408 -0.3049,0.55898 -0.15245,0.3049 -0.25409,0.50817 -0.0508,0.15245 -0.15245,0.50817 -0.10163,0.35571 -0.15245,0.50816 -0.0508,0.15245 -0.15245,0.60981 -0.0508,0.40653 -0.10163,0.55898 0,0.10163 -0.10164,0.66062 -0.0508,0.50817 -0.10163,0.66062 0.40654,0.0508 1.47369,-0.81307 1.11797,-0.86389 1.57532,-1.01634 1.11797,-0.6098 1.32124,-0.81307 0.20326,-0.25408 0,-0.81307 -0.45736,-1.47368 -0.96552,-1.98185 z m 1.27042,6.55537 q 0.15245,-0.45735 0.15245,-1.01634 0.0508,-0.6098 -0.3049,-0.71143 -0.45735,0.10163 -1.42287,0.86388 -0.96552,0.76225 -1.06716,0.81307 -2.1343,1.77859 -2.08349,2.79492 0,1.47369 0.30491,1.47369 0.3049,0 2.28675,-1.88022 1.98186,-1.88022 2.13431,-2.33757 z m 58.64257,-5.53903 q -0.10163,1.01633 0.25409,2.38838 0.40653,1.32124 0.40653,1.42288 0,0.45735 0.50817,0.6098 0.50817,0.15245 1.93104,0.15245 2.79492,-0.20327 7.11435,-0.81307 4.37024,-0.66062 6.19965,-0.86389 1.8294,-0.15245 3.76044,-0.50817 1.93104,-0.40653 2.38839,-0.66061 0.3049,-0.20327 0.35572,-0.35572 0.10163,-0.20327 0.15245,-0.86389 0.0508,-0.76225 0.20327,-1.01633 0.15245,-0.25409 0.45735,-0.25409 0.76225,0 1.01633,1.67696 0.25409,1.47368 -0.15245,2.18512 -0.40653,0.66062 -1.72777,0.86389 -1.16878,0.20326 -2.08349,0.45735 -0.9147,0.20326 -1.62613,0.35571 -0.66062,0.10164 -2.03268,0.20327 -1.11797,0.0508 -2.64247,0.3049 -1.47369,0.25409 -2.1343,0.35572 -2.33758,0.40653 -6.19965,0.81307 -3.86208,0.35572 -5.48822,0.10163 -0.66062,-0.15245 -1.11797,-0.66062 -0.40653,-0.50816 -0.86388,-1.67695 -0.6098,-1.37205 -0.76225,-2.49002 -0.10164,-1.11797 0,-3.15064 0.20326,-2.33758 -0.10164,-2.33758 -0.10163,-0.0508 -0.3049,0.10164 -0.35572,0.20326 -1.11797,0.40653 -0.76225,0.20327 -0.96552,0.15245 -0.20326,-0.0508 -0.50817,-0.50817 -0.3049,-0.45735 -0.3049,-0.76225 0,-0.35572 0.3049,-0.55898 0.35572,-0.20327 0.86389,-0.35572 0.55898,-0.15245 0.81307,-0.3049 0.40653,-0.25409 1.06715,-0.40654 0.66062,-0.20326 0.9147,-0.35571 0.40654,-0.40654 0.15245,-3.96371 -0.20326,-3.608 0.0508,-4.06535 0.25408,-0.55898 0.86389,-0.40653 0.6098,0.10163 0.86388,0.45735 0.15245,0.25408 0.3049,2.54084 0.15245,2.23594 0.15245,3.55717 0,0.86389 0.20327,0.86389 0.20327,0 1.06715,-0.45735 0.91471,-0.45735 1.27042,-0.76225 0.35572,-0.25409 0.40654,-0.50817 0.10163,-0.25409 0.15245,-1.47369 0.25408,-3.20146 0.40653,-4.26861 0.20327,-1.06715 0.55899,-1.37205 0.25408,-0.20327 0.40653,-0.20327 0.20327,0 0.66062,0.35572 0.45735,0.3049 0.50817,0.55898 0.0508,0.25409 -0.15245,1.32124 -0.15245,0.6098 -0.3049,2.18512 -0.10164,1.57532 0.15245,2.03267 0.25408,0.0508 1.57532,-0.40653 4.16697,-1.47369 4.87841,1.37205 0,1.16879 -0.81307,2.84574 -0.76225,1.62614 -1.77859,2.64248 -0.10163,0.10163 -0.25408,0.20326 -0.55899,0.50817 -0.9147,0.76226 -0.3049,0.20326 -0.91471,0.50816 -0.55898,0.25409 -1.11796,0.20327 -0.55899,-0.0508 -1.11797,-0.35572 -0.35572,-0.25408 -0.60981,-0.76225 -0.25408,-0.55898 -0.15245,-0.76225 0.35572,-0.50817 1.06716,0.0508 0.40653,0.3049 0.6098,0.35571 0.25408,0 0.66062,-0.20326 0.45735,-0.25409 2.08348,-2.43921 0.45736,-0.6098 0.76226,-1.5245 0.35571,-0.96552 0.15245,-1.16879 -0.3049,-0.40653 -1.77859,-0.0508 -1.47369,0.35572 -2.43921,1.06716 -0.3049,0.25408 -0.45735,0.50816 -0.10163,0.25409 -0.3049,1.11797 -0.3049,1.27042 -0.50817,1.72777 -0.15245,0.40654 -0.6098,0.96552 -1.01633,1.21961 -1.67695,1.57532 -0.6098,0.30491 -1.11797,-0.0508 -0.45735,-0.3049 -0.40654,-0.66062 0.0508,-0.40654 0.55899,-0.66062 0.71143,-0.35572 1.2196,-1.42287 0.55899,-1.06715 0.25409,-1.37205 -0.20327,-0.20327 -1.37206,0.50816 -1.11797,0.71144 -1.32123,1.06716 -0.45736,1.01633 -0.45736,4.31943 z m -16.10892,-6.30129 q 0.20327,0 0.86388,-0.50817 0.71144,-0.50816 1.32124,-1.11796 0.6098,-0.66062 0.86389,-0.71144 0.25408,-0.10163 0.6098,0.15245 0.50817,0.35572 0.10163,1.2196 -0.45735,0.66062 -1.98185,1.88022 -1.47369,1.16879 -1.98186,1.93104 -0.20326,0.45735 -0.40653,6.09802 -0.10164,2.89656 -0.10164,3.20146 0.0508,0.71143 0.25409,0.71143 0.15245,0.0508 0.35572,-0.35572 0.10163,-0.20326 0.96551,-1.37205 0.91471,-1.16879 1.01634,-1.37205 0.20327,-0.45735 0.45735,-0.86389 0.3049,-0.40653 0.66062,-0.81307 0.40653,-0.45735 0.50817,-0.66062 0.15245,-0.25408 0.71143,-0.50816 0.55899,-0.25409 0.81307,0.10163 0.15245,0.20327 -0.55898,1.2196 -0.71144,0.96552 -0.66062,1.11797 -0.45735,1.06716 -1.06715,2.18513 -0.60981,1.06715 -1.72777,2.79492 -1.06716,1.67695 -1.27042,2.03267 -1.42287,2.23594 -2.43921,0.66062 -0.15245,-0.35572 0,-1.47369 0.20327,-1.11797 0.10163,-1.57532 -0.0508,-0.96552 0.10164,-2.99819 0.15245,-2.03267 0.0508,-3.86208 -0.10163,-3.049 -0.3049,-3.09982 -0.15245,0 -1.47368,0.45735 -1.27042,0.40654 -2.43921,0.71144 -1.16879,0.3049 -1.11797,0.0508 -0.10163,-0.10163 -0.15245,-0.96552 -0.10163,-0.66061 0.10163,-0.9147 0.20327,-0.25408 0.81307,-0.35572 0.6098,-0.10163 0.86389,-0.20326 0.6098,-0.15245 1.42287,-0.45735 0.86388,-0.30491 1.2196,-0.40654 0.81307,-0.20327 1.01634,-0.50817 0.25408,-0.3049 0.35571,-1.2196 0.0508,-0.35572 0.10164,-0.81307 0.10163,-0.50817 0.15245,-0.71143 0.0508,-0.25409 0.15245,-0.55899 0.10163,-0.35572 0.3049,-0.6098 0.66062,-0.6098 1.16879,-0.10163 0.55898,0.45735 0.25408,1.42287 -0.25408,1.16878 0,1.16878 z m 57.11809,-12.29766 q 1.57532,0.40653 1.93104,1.16878 0.35572,0.71144 -0.71143,1.52451 -0.25409,0.0508 -0.86389,-0.40654 -0.55898,-0.45735 -0.81307,-0.45735 -2.79492,-0.66062 -3.40472,-1.27042 -0.50817,-0.50817 -0.45735,-0.81307 0.0508,-0.3049 0.71143,-0.55898 0.50817,-0.35572 1.01634,-0.3049 0.50817,0.0508 0.76225,0.25408 0.25408,0.20327 0.76225,0.50817 0.55899,0.25408 1.06715,0.35572 z m 10.31581,4.67514 q 0.10164,0.20327 -0.35571,0.66062 -0.40654,0.45735 -1.16879,1.11797 -0.76225,0.6098 -0.9147,0.76225 -0.40654,0.35572 -1.01634,0.71144 -0.55898,0.3049 -1.11797,0.76225 -1.32123,1.01634 -3.40472,2.28676 -2.08349,1.2196 -2.38839,1.2196 -0.20327,0 -0.66062,0.40653 -0.81307,0.71144 -2.13431,1.37206 -1.27042,0.6098 -3.09982,1.37205 -1.82941,0.71144 -2.49002,1.01634 -0.30491,0.20326 -0.86389,0.3049 -0.55898,0.0508 -0.76225,-0.10164 -0.20327,-0.40653 -0.20327,-0.50816 0,-0.15245 0.10163,-0.50817 0.15245,-0.35572 0.15245,-0.50817 0,-0.50817 0.40654,-0.71144 0.40653,-0.25408 1.16879,-0.35571 0.76225,-0.15245 0.96551,-0.25409 0.35572,-0.15245 1.27042,-0.50817 0.91471,-0.35571 1.47369,-0.55898 0.55899,-0.25408 1.27042,-0.6098 0.71144,-0.35572 1.2196,-0.66062 0.60981,-0.40653 2.89656,-1.72777 2.28676,-1.32124 2.84574,-1.67696 0.71144,-0.45735 2.54084,-2.03267 1.88022,-1.57532 2.94738,-2.08349 0.55898,-0.20326 0.9147,0.0508 0.40653,0.20327 0.40653,0.76225 z m -7.06353,25.66249 q -2.43921,0 -2.38839,-3.15065 0,-0.81306 0.20327,-1.47368 0.20326,-0.71144 0.45735,-0.76225 0.15245,0 0.20326,0.3049 0.0508,0.25408 0.10164,1.2196 0.10163,1.37205 0.25408,1.77859 0.20327,0.40653 0.71144,0.25408 0.50817,-0.10163 1.5245,-1.32124 1.06715,-1.27042 1.42287,-2.23593 0.10164,-0.20327 0.20327,-0.60981 0.15245,-0.40653 0.20327,-0.66061 0.10163,-0.25409 0.15245,-0.55899 0.10163,-0.35572 0.10163,-0.55898 0.0508,-0.20327 0,-0.40654 0,-0.20327 -0.10163,-0.3049 -0.10164,-0.15245 -0.3049,-0.15245 -0.15245,0 -2.08349,0.6098 -1.93104,0.6098 -2.54084,0.86389 -0.50817,0.20326 -1.37206,0.3049 -0.81306,0.10163 -1.16878,-0.0508 -0.10164,-0.0508 -0.40654,0.35572 -0.25408,0.40653 -0.76225,1.27042 -2.38839,4.26861 -4.42106,6.75863 -0.76225,0.86389 -1.77859,1.72777 -0.96552,0.86389 -1.27042,0.86389 -0.3049,0 -0.71143,-0.40654 -0.40654,-0.35571 -0.50817,-0.76225 -0.0508,-0.45735 0.25408,-0.86388 0.35572,-0.45735 0.86389,-0.55899 0.6098,-0.0508 0.86388,-0.3049 0.3049,-0.3049 0.55899,-0.76225 0.25408,-0.45735 0.6098,-0.71144 1.77859,-2.03267 3.86208,-6.09801 2.08349,-4.11616 3.15064,-7.47007 0.10163,-0.20327 0.45735,-1.2196 0.35572,-1.06716 0.66062,-1.67696 0.3049,-0.6098 0.6098,-0.6098 0.40653,-0.20327 0.50817,-0.15245 0.15245,0 0.45735,0.25408 0.66062,0.45736 -0.15245,2.28676 -1.47369,3.50636 -1.98186,5.64066 0.71144,0.15246 1.32124,0.0508 0.6098,-0.10163 1.8294,-0.45735 1.27042,-0.35572 1.57533,-0.40653 0.25408,-0.0508 1.5245,-0.45736 1.27042,-0.45735 2.03267,-0.15245 0.96552,0.71144 0.25408,3.9129 -0.10163,0.96552 -1.16878,2.84574 -1.06715,1.88022 -2.13431,2.99819 -0.71143,0.76225 -0.96552,0.9147 -0.20326,0.10164 -0.71143,0.10164 z m 12.755,-6.25047 q -0.25409,0 -0.50817,0.0508 -0.3049,0.10163 -1.06715,0.76225 -0.71144,0.6098 -0.71144,0.9147 0,0.0508 0,0.0508 v 0.0508 q 0,0.35572 0.35572,0.66062 0.35572,0.3049 0.86389,0.3049 0.50816,0 1.16878,-0.45735 0.71144,-0.45735 0.86389,-0.81307 0,0 0.10163,-0.55898 0,-0.96552 -1.06715,-0.96552 z m 5.53903,0 q -0.25408,0 -0.50817,0.0508 -0.3049,0.10163 -1.06715,0.76225 -0.71144,0.6098 -0.71144,0.9147 0,0.0508 0,0.0508 v 0.0508 q 0,0.35572 0.35572,0.66062 0.35572,0.3049 0.86389,0.3049 0.50817,0 1.16878,-0.45735 0.71144,-0.45735 0.86389,-0.81307 0,0 0.10163,-0.55898 0,-0.96552 -1.06715,-0.96552 z m 5.53903,0 q -0.25408,0 -0.50817,0.0508 -0.3049,0.10163 -1.06715,0.76225 -0.71143,0.6098 -0.71143,0.9147 0,0.0508 0,0.0508 v 0.0508 q 0,0.35572 0.35571,0.66062 0.35572,0.3049 0.86389,0.3049 0.50817,0 1.16879,-0.45735 0.71143,-0.45735 0.86388,-0.81307 0,0 0.10163,-0.55898 0,-0.96552 -1.06715,-0.96552 z"
     id="text43"
     aria-label="..." />
</svg>
