<?xml version="1.0" standalone="no"?>
<!DOCTYPE svg PUBLIC "-//W3C//DTD SVG 1.1//EN" "http://www.w3.org/Graphics/SVG/1.1/DTD/svg11.dtd">
<svg xmlns:inkscape="http://www.inkscape.org/namespaces/inkscape" xmlns:sodipodi="http://sodipodi.sourceforge.net/DTD/sodipodi-0.dtd" xmlns="http://www.w3.org/2000/svg" xmlns:svg="http://www.w3.org/2000/svg" width="37.07951354980469" height="26.86537742614746" viewBox="0 0 37.079512 26.865378" version="1.1" id="svg1" xml:space="preserve" inkscape:export-filename="icon.svg" inkscape:export-xdpi="2000" inkscape:export-ydpi="2000"><sodipodi:namedview id="namedview1" pagecolor="#ffffff" bordercolor="#666666" borderopacity="1.0" inkscape:showpageshadow="2" inkscape:pageopacity="0.0" inkscape:pagecheckerboard="0" inkscape:deskcolor="#d1d1d1" inkscape:document-units="mm" inkscape:zoom="2.2677135" inkscape:cx="-18.520858" inkscape:cy="118.84217" inkscape:window-width="1920" inkscape:window-height="1017" inkscape:window-x="-8" inkscape:window-y="-8" inkscape:window-maximized="1" inkscape:current-layer="layer1"/><defs id="defs1"/><g inkscape:label="圖層 1" inkscape:groupmode="layer" id="layer1" transform="translate(0,-19.93775)"><path id="rect1" style="opacity:1;fill:#000000;fill-opacity:1;stroke-width:1.09222" d="m 15.622085,19.937926 c -2.129414,-0.0066 -2.979992,0.169054 -4.786271,0.988053 -3.2204025,1.460188 -5.9017285,4.616226 -6.5747935,7.739581 -0.336065,1.559516 -0.332374,1.46694 -0.05271,1.351855 0.140774,-0.05793 0.590425,-0.225704 0.998906,-0.373104 1.716433,-0.619368 3.887651,-0.657265 5.7024955,-0.09922 0.496137,0.152556 0.911985,0.257046 0.923974,0.232028 0.93013,-1.940952 2.369199,-3.557072 3.944979,-4.430221 1.746917,-0.967977 4.584659,-1.377866 6.168099,-0.890902 0.530793,0.163238 0.622571,0.146243 1.383377,-0.259415 0.448195,-0.238975 0.81622,-0.476945 0.817521,-0.52865 0.0013,-0.0517 -0.429378,-0.489708 -0.957047,-0.973585 -0.670638,-0.614982 -1.387194,-1.087107 -2.380732,-1.56838 -2.029739,-0.983212 -2.892238,-1.180904 -5.187798,-1.18804 z m 11.682491,4.778004 c -1.340901,0.05864 -2.646031,0.472367 -3.730522,1.233516 -0.747692,0.524769 -0.812065,0.543892 -1.232999,0.366903 -0.766717,-0.322381 -2.453197,-0.50822 -3.307808,-0.364836 -3.083352,0.517316 -5.593029,2.937823 -6.057512,5.842538 -0.04987,0.311883 -0.111835,0.56689 -0.137459,0.56689 -0.02562,0 -0.277745,-0.156804 -0.560689,-0.348816 -1.1888,-0.806742 -3.1243925,-1.289886 -4.6860195,-1.169437 -3.638378,0.28063 -6.905661,3.022851 -7.471379,6.271451 -0.804811,4.621559 2.523277,9.024573 7.257955,9.601998 0.508127,0.06197 5.6890845,0.09944 11.5129925,0.0832 9.654923,-0.02693 10.662965,-0.05175 11.43186,-0.280603 3.323285,-0.989144 5.803365,-3.503951 6.540686,-6.632153 0.459284,-1.948576 0.16803,-4.526708 -0.706934,-6.253365 -0.374556,-0.739151 -0.375731,-0.751339 -0.151412,-1.55081 0.547598,-1.951621 0.153826,-3.917822 -0.996321,-4.97799 -0.775717,-0.715031 -1.406004,-0.997356 -2.226738,-0.997356 -0.4311,0 -0.889464,-0.147425 -1.532206,-0.492993 -1.227653,-0.660043 -2.604595,-0.956772 -3.945495,-0.898136 z m 2.583821,2.714046 c 0.733054,-0.03175 1.505422,0.01566 2.198832,0.147278 1.354796,0.257164 2.002284,0.580065 2.269112,1.132231 0.514542,1.064773 0.266657,3.934322 -0.469738,5.439461 -0.736953,1.506275 -2.612831,2.121899 -4.766634,1.564245 -0.765268,-0.198138 -0.77229,-0.197158 -0.451652,0.06305 0.651186,0.528459 1.892324,0.899877 3.039607,0.910022 l 1.09089,0.0098 -0.374654,0.497644 c -1.562196,2.072408 -4.500387,3.041589 -7.141683,2.356446 -0.930819,-0.241452 -1.100024,-0.173315 -0.348816,0.140559 1.002737,0.41897 2.671499,0.773445 3.804936,0.80822 l 1.124479,0.03462 -0.658358,0.595829 c -1.264055,1.144507 -2.948493,1.744946 -4.903577,1.747697 -1.346454,0.0019 -2.734319,-0.295364 -3.740339,-0.800984 -0.371323,-0.186625 -0.672685,-0.289908 -0.669726,-0.229961 0.0085,0.172411 1.204777,1.066769 1.986442,1.485181 0.391824,0.209738 0.66374,0.410324 0.604097,0.445968 -0.183749,0.109816 -1.623355,0.358424 -2.595707,0.448034 -2.112432,0.194677 -5.201938,-0.448304 -6.511232,-1.354956 l -0.612881,-0.424263 -2.251543,1.353406 c -1.2381565,0.744433 -2.3055235,1.351648 -2.3719475,1.349271 -0.06642,-0.0024 -0.232684,-0.06967 -0.369487,-0.149345 -0.157503,-0.09174 -0.248564,-0.31694 -0.248564,-0.614432 0,-0.411312 0.102017,-0.540753 0.817522,-1.03818 0.449496,-0.312495 1.440777,-0.933205 2.2029665,-1.379244 l 1.385445,-0.810803 v -0.885734 c 0,-1.84137 0.88893,-3.931822 2.304769,-5.420858 l 0.812353,-0.854728 0.01912,1.208195 c 0.02867,1.811451 0.171159,2.117279 0.390157,0.838192 0.476044,-2.780398 2.393518,-5.118981 5.01313,-6.114356 l 0.720887,-0.273885 -0.10387,0.322978 c -0.349554,1.08979 -0.475895,2.624907 -0.202055,2.455664 0.07817,-0.04831 0.14211,-0.186638 0.14211,-0.307475 0,-0.411727 0.728152,-1.681005 1.302247,-2.270146 0.610418,-0.626415 1.741097,-1.267662 2.499588,-1.417484 l 0.461987,-0.09147 -0.305408,0.690914 c -0.331676,0.74981 -0.500092,2.276314 -0.343131,3.112989 0.127119,0.677603 0.2448,0.542547 0.464571,-0.534851 0.381059,-1.868108 1.503777,-3.402048 2.8236,-3.857646 0.535497,-0.184852 1.229101,-0.295359 1.962154,-0.327112 z m -0.195337,4.33927 c 0,-0.06815 -0.411271,0.199595 -0.914156,0.594796 -2.040883,1.603868 -6.095536,3.809462 -11.095962,6.035807 -2.623126,1.167897 -4.335136,2.066174 -4.335136,2.274797 0,0.167189 0.283329,0.498677 0.42633,0.498677 0.0469,0 1.840978,-0.822146 3.986837,-1.826762 4.821305,-2.257168 5.416282,-2.557619 6.990787,-3.531567 1.855724,-1.147905 4.9413,-3.674365 4.9413,-4.045748 z" inkscape:export-filename="logo.svg" inkscape:export-xdpi="2000" inkscape:export-ydpi="2000"/></g></svg>